<mxfile host="app.diagrams.net" modified="2023-04-03T12:42:49.649Z" agent="Mozilla/5.0 (Windows NT 10.0; Win64; x64) AppleWebKit/537.36 (KHTML, like Gecko) Chrome/111.0.0.0 Safari/537.36 Edg/111.0.1661.62" etag="fA9zSmlN-hRpQhb2pLo2" version="21.1.2" type="github">
  <diagram name="第 1 页" id="xsZ7Ssa3Ve7u5eatzG1I">
    <mxGraphModel dx="737" dy="470" grid="1" gridSize="10" guides="1" tooltips="1" connect="1" arrows="1" fold="1" page="1" pageScale="1" pageWidth="827" pageHeight="1169" math="0" shadow="0">
      <root>
        <mxCell id="0" />
        <mxCell id="1" parent="0" />
        <mxCell id="UGh84uwNY6xkyhURXS99-1" value="" style="rounded=0;whiteSpace=wrap;html=1;strokeColor=#000000;" vertex="1" parent="1">
          <mxGeometry x="90" y="320" width="950" height="680" as="geometry" />
        </mxCell>
        <mxCell id="UGh84uwNY6xkyhURXS99-2" value="" style="shape=image;verticalLabelPosition=bottom;labelBackgroundColor=default;verticalAlign=top;aspect=fixed;imageAspect=0;image=data:image/png,iVBORw0KGgoAAAANSUhEUgAAAggAAACnCAYAAAB0KaRxAAAAAXNSR0IArs4c6QAAIABJREFUeF7s3QeYXVXVBuCVkEoKARJK6BAI4A8oIAKCoqCgiCACKoqKDREVRJAiVZCiAvZekKIoKChNQRBQpCNFeq8JaaSQ3v7n3efucBkmmXZn5t6Zc57nZiZzT9ln7b3X+ta31l67z+LFixdHeZQSKCVQSqCUQCmBUgKlBKok0KcECOV4KCVQSqCUQCmBUgKlBJpKoAQI5ZgoJVBKoJRAKYFSAqUEXieBEiCUg6KUQCmBUgKlBEoJlBIoAUI5BkoJlBIoJVBKoJRAKYGWJVAyCC3LqDyjlEApgXZKQA50nz592nl1eVkpgVIC3SmBEiB0p/TLZ5cS6MESGDduXNx9993x7ne/O/r379+D37R+X60tAG3GjBnx9NNPxworrBCjR4+Ofv361e+LlS3rEgmUAKFLxNy4D5k9e3a88sorMXz48KTku9IbrF6B67lNlV1XtqVxe7B7Wq6vLrvssvjFL34R5513XowcObJ7GlInTyUPBni55ZaLIUOGdHqrPO/ll19Oc3eNNdZIz13WMXfu3Pjud78bP/3pT2P99dePn/3sZzFmzJhOb2f5gPqWQAkQ6rt/urV18+bNi9NOOy0pekpj3XXXjZVXXjkZamBh4MCBCTDMnz8/nOugiHge+eP/zlm4cGHMmjUrAA6/u7YacCxatCgWLFiQ7pU/znXfAQMGpPv5u/sBK6uvvnqsuOKK6fdRo0Ylr8fvQ4cOXdKuDCBaAyS8U/54D79rz/Tp02PmzJlJ0VKinrnmmmvGoEGDurVvOvLw/J5z5syJadOmpfccNmxYkl/fvn07cusl1+rjk08+Of7zn//EH/7whzRuevMxZcqUOPTQQ2PHHXeMz33uc50qCnPpzjvvjBNOOCH0MWO/0UYbLRXc6/8//elP8bWvfS0mTJiQwJz/b7PNNp3azvLm9S+BEiDUfx91WwsZ5B/96EdJwU+dOjV5JIwLQ5m9ecqoqWefPf+mhrnaAOeXqmYJmvseIAAkfPKzKLTMKPh+8ODB6QMkUG4+fgcWGPJ8LeMHmDj87h4ACCXq4x0BAt8xcP5PYfL8fE8eDN3nP//5OOiggxJwabTDOzEeN910UzzwwAPx3HPPJRmstdZa8Z73vCd233339HtHgQJQ9alPfSr12bnnnrvEa9bH/kaWxhEZ6qPWgLjOlLX+1sd+alMGv7V65oMPPhh77rlnfPOb34z99tuvVrdt9j6TJk2Kgw8+OP7yl7/EqquuGldeeWVsttlmzcpYfzzxxBOx//77p5/Ar3f//e9/HxtssEGntrO8ef1LoAQI9d9H3dbCbDwZC4bzmWeeST95Q7x7H0qekaZUnZfZBNf6nTH38R1qdfnll0+/5+udlwEGI+Hje0ad0WeQKS0ervPc0/N9tEecG3Dxk2LkEbt3fnYGHRlcVIOXpkVE8/OzwP0/MyWUpnYxIptuumliVRrNK9ZXZ5xxRnzve99L/bjSSivFJptskvrk8ccfj5deeikZklNPPTXe/va3dwgkAB4M4Zvf/OY488wz4/nnn0+ARL89++yz6Xnjx49PYOTwww9Pz13aoe+a9k2tJoUx8OSTTyaP+V//+ldiirbeeuv46le/moxrrYDLbbfdlgDT97///dh5551r1fzX3Yesrrrqqvj4xz+egC35X3755Usdq+bmOeeck9iGt771rQksGhNnnXVWAthtPTJTaKxh/dyjzGVoqxTr5/wSINRPX9RVSyjO6667LhnCE088MdH42aBW0/HVxt0LNKXpq41w9tqrz2tqpH1XHRpwTVNvNj+DMvKh5CgkwEAYg2L04cVmzx9g8J1P9hQzoKFUKTIAxsc9PQPljo0QVgBWnE/RX3jhhfGrX/0qxXbr/fAe3ve///1vnH/++cmrBKTImAH88Y9/HNtvv30y4BdffHF6L6GkX/7yl8lQtMdAeiZji2Xx2WOPPZJHe8cddyRxkbXxJGwFGHziE59Iz2zu0FbGW59kdqNWYMGYuPbaaxOAuf/++xMY1HZG8otf/GIcd9xxNQsl/fvf/47PfOYzCSBI2uysA1j+8pe/nFg/oN3vQj3NJYlWswcA2/vf//40TgBEsjbenWNeZYC8tPFgDroW8yAxFVMFeH7gAx+IT3/602kOtWcsdZacyvu2TgIlQGidnHrlWZTMKaeckgwHY9EIR3OAI7e7KbCpfp9q9mJpIRLn3HjjjXH66acnA4rZqNcD6MGmPPzwwwnk/fWvf03hErHonXbaKXnw//znP+M73/lOMtAODMKHPvShQIdfcMEFyZC1R6kz5pLdeKYS33imxhIQwijz2HmsMuUBssw+NZWl+/zkJz9JY5CReuc735mMrPsxOB05yEeY5Stf+UpiMoCY973vffHiiy8mQIwl+uMf/5iATC2OG264IeUeAGS77LJLLW7Z7D1uvvnmOOCAA1Lo6A1veEP85je/iTe+8Y3N9iMZSCI98sgj4//+7/9SXwjN/fznP0/sknkAOOmDjTfeOIEGQK4pI6CfhDHI7aGHHkpgGgjExjj3S1/6Uhx99NENGZLrtI5qkBuXAKFBOqo7momapEAZi2233bY7mlB3z/zHP/6RjB6AsNpqq9Vd+3KDGGGeIw8ZUADweHJ77bVXYkW+8Y1vJCMu3PCRj3wkXcbz++AHP5i85j//+c/JSLbnwFhgDNwPMBg7dmy6TQZo6OsPf/jDsfbaayemB4jxrKbZ/Tx54QcGC7AAVgAD9P8RRxzRboOjHQzoxz72sbjvvvvS/Yxzz9de7AEjLrmPwezo4XnXXHNNuq93ecc73tGqW+a8CNfn0NyyLnTe2WefnZgPxv+oo45KRntpKxjIXt8DL8IechCOP/742HfffRN7gJUzTn74wx+mx2611VZpvAATGTh65qOPPprGjZ/AG9YIM3T77bfH17/+9QQW/v73v8d6663XqvcuT6ofCZQAoX76ou5awsMSy6TQKYDyiBTPZTgk3tXz0j2hkGz0JMfxjjEePDqKnwEXq+Zh7rbbbslgoqMBIMb3mGOOWWKAq1mEpTE01edgIgARXqhwzIgRI14zdO65554UgtAGPxk0rMzb3va2FC4SBuKFaiuPmPcpsRJg8BznYUXaa7wZ3m9/+9tLEgY9G1NABhJQecEMOaO5tGTNHFpr7ZzwnnIQgEueeLUcm7I0jLu2XHTRRcl4y3WxmgigWtahXz3DdUAZsFOd2+GZmVmSC4Id+MIXvpDekSyFmsglszPCFQceeGACTptvvnlifoAcACEf+gtYBuTe8pa3pCWtxlnO1wEWLr300gRGgcKOJr+2Vt7lebWRQAkQaiPHHnkXShkwYDAOOeSQcnJHpHg4RkWsngGs14OxkMSZV3ZU53+ID++9996J8vc+aGOeJuDDA+RRAz/i1q7HlAgDMKyuwRDIJ8BMrLLKKikRjvHiqTJCvHKghCFkEJvGvy19ZGjQ7ZMnT05ji+dqrIlhAynCHkANg3bXXXclQyb04WCg/va3v7UrSVT7FAPy/nJUGNMtttgihVwYR3k3mBZjfmlLWYU7tJuMmp6zNOBwyy23JMbCKgaATN9MnDgxMQOMOaOcY/733ntvOs976xvtFWZhYJuyAeSjX4AMRp/MGP5jjz02MQh5pY12CTH97ne/S+GAF154IbE3wBxwZCxbsQR8uZf7AmdAnJwE9zWmvK/+14eei1XANh122GEpufPXv/51rLPOOum5nuk9gJuTTjopjauW6jHU63zqre0qAUJv7flWvDdFLzb70Y9+NE3wRlzW14rXbNMpPOJcAKipZ9ymG3XjyYyT/AKGgZcpcZGBzjUeUM2MIA/eKgOU8yc/+clkULEMvgMQePrGhPXyqGS5DQwAOl0cnFdpbX1TrxEjgJWS/8Az5fXyVNW2wFwwdBgISZW8V4ZSbkRe+SKPAvvRHoCWl+56X+yYVR0MKgNslYX3BA4kqFYf2ePHYvz2t79NIBHbYKUGOZEFufmpfcZGZgbILScpWkpqBQkDC2AxuIyv58vJ8DdgyPkMvHAEsGQOAlI5/s9zz5UqMR7aq//E+1H6QksbbrhheoUcUvHOl1xySZIpcPPYY48lIICh8M76VnsY/v/9738JMHkG0AYIZjACVGmb/+cVL8YI+QFvQIX+An7UftCPP/jBD5K8SwahGyd+Ox5dAoR2CK23XMKTARBkIsv0buTiQLXqM6GFq6++OlHQ7aW4a9WW9t5HbsB73/ve5PnrX3Fmhp7SxyhILmN8MQ1oZYYZG2AcMCRoa2OBYWFIAEkrEoQrGHwGhWHgOX72s599TYIcL1a2vDCD83jI4uDi04yRJEGeqvthCRgyyY4YDsbnqaeeSj+BtKZGfFnyyPQ68MGTBzrckyftOZbR8oIBJ79XH+h+Bp28UP5yO1xHJsZDjtWLs5OVewBA5MNDZ5jNJUAkG0hggKfNSJMzmh6r4R6AAJaBgX7kkUcSaAHQgSbXAwcSKLEz4v5AS15GbNXHu971ruTVM9DeGyDUH9dff31iiDJow/LoawDFeM4gAMAzFixHlUzqWmAAkMScYAk8R3InICgvQQiFXMjV2AAQ5HFIgPR/16rM2J6k1/aO8/K6jkugBAgdl2GPvQOPgCHhxaAfu6JEbL0LkyKnaMVU22Kg6um9GCGeLyPMY+X1MgS8eEpf/J9x8XcKXygA3czw3XrrrSlfgHHhzTKAwCNmhefIkMmMz8ltnpONAkNKfjmjnZfL22VMGGHn8TIZKF43KhwNLhwBGLgX7xUNjirXztYeDBqjKpSAAWBUgRPL99R88FxZ/7nyZ74vw2jsf+tb30rzQNiNjDARgIqYO2DkHAwIY+9gEN/0pjclcEMWaHn3cg6D710sk/UdmUgu9HeG2bUSAzNIsALF+wJRngvEAR36TngE0JAbI2Sh/d5FuEhoB1uBleHF77rrrqnv3OeKK65Ibch5Itgf8gfcrLYAIuUSAMMSXL2XYkoAjXeQnwEYAEkAg7Ggj6x4MjcAQQAamNHf2IlyP47Wjtb6Oa8ECPXTF3XXEt4LSpSiowQa1WOupWApP/SvpV9NPc1aPqez7sWjZCB5qTmvgLGhwCl1jIGQQTa+zpeNznsFGhg6AMC4yNUsrX9nbIQjGGEyYuAYznwe4+g+wglWLfCgeeUMntwDTAQDxiuW2Aacoq8ZRuEM3jXmgkGVI8C7bovB8V6SIQEeoQBGNddoUDFwafuMMMIMLrACzGivd5IEyoBqF/CgpgTWgCFG4zPQjDfww8t38PJ57zlcx3sXPsBg5KRIcs59hHVwb7IVv2eEyW6fffZZAuqwOq7H1AB0AAL5qLdQHe7hvQNxQBGQJBQBiLm3cIn31//GAQCiv4QNjBXjBDAAWPwdMwTsYVw8X9udkxMgydnfgAOgR1saca501hxspPuWAKGRequL2yq2iUHIAKFRY+61FBsDhlIXU21ERkV8WeKY2Lt9ARhdHiY2hIFjHNDmvGmGihHjHWMJjAOGwrU5I50nzvAAGRgGXqV4OkPJuOclfRIMGRQMhGt4oX4XVhBy4Okyqn7HRAAavFsGmreKvtYODII+wHa0JZ7tvYUXeMTAkbCGPmTYlkZ7YzG8DzDCg2ZEsRc5TwFgJiOGmex40+Tk4z149JITGUrnyfnguQNg/q8OhXAH4CUXhEHHzPDwgQu0vfug+OUXkJt7kz+vXI4HGTLqgAMQgN0QMgDoGXH5DMIxAJs+c0+gwwol7cIOYQzIB9vB+HtXbQUEhaDy8kngzP0kQOofoEWfu7f+A+T8Hdvk/3m1iNU0ZWihllqo6+5VAoSuk3XDPYkXR9lY/sQrLL2ASApUnFyCXSPmZDAaKHsGCQuSmQF/Z2gYLQZFXQJKHlhgJHn8vmdcJOHlMAGDa0UH75pMLHUDENybF8nAiNczLu4LkPDiGX/PEq7RHvF9beKJAylAC8PLawUs0PG8dQDF99ttt12bjQ4PF13PKPOyGcTmQAaDyEh6d++UwzCMpnnAoKPbtc8YyEZTuIKBBEAYc+eh5zEsgBaj7/lWfPg/L947O1+IR36DmL55BqBhH3joGZgbd4CNnAL5G/pHP8htEC6SHwLMYHLIyDJFAENehDAGlgYgwCAAB/oMYCFL4R73kmNgLJA7QObZZG6ceD8hFWMjF2QSAtKnrgNOgBwAyLmWNwJ75FyWW2449Z8aXAKExuy3Lmm1eCuAoIIdZd+e2uxd0tAuegjDgT7lGeXEvi56dM0ewzDJiBcm4Y1LaHPkzZV4gYwYQAAYMP6WOaKJt9xyy+R1+z2vIJCDwPBhEBgaBpeRZDQZGR9xac8T68cGiLMzaFYiSBTUDsALAMnr5xkscsZAYDcYKW3lSaP721PmWv9Zxoii1y7Grnplju8ZdiEBXrFEP6EWBhNgYLAZWOEFhhxwAFqACAl+DrkO4vzCGEIRkgLR/0CRc7EkgAMZAT4MMGMuudNPwAWLIAwhDFK9LBBzJRyDueK5u4dEQsmQgJvnCRn4m7a71vzlvQMNrtfPeb8T1wlPeDey91PfkLEli1ZBOBeIAD6Mec93X+AIEMQS6Sf38g7eUT8DO8YZBhKb5J3Lo/EkUAKExuuzLmuxSU4hmPSMRW+f5LwuipIxEEtuRK8Iza4/5ZeIlTNgDoaRF4uaZtx9z5gyFIy4n4w3j5FhR1XzyHmLstUZ7LyOP8eyGXnnGDcMBQ+V9+snQ8ZzZjCFHxjEaqOflxXmPAeGLGfGM0rtZW/kIhjTvF1Uvd8zCJBkJ+aO6cB6AERofPOAYcVqADZkoFaDfAyAx3ioriwIUHhvbcyhBO1nrDEKDC7jysgCVnIhhC+EC/QNQE4u1YA8L1UUWiF7/2eYMS76J4dcyNa13kvoQJvlemiPg3HH1mAXjAVGHAskHOJaHr/+qg4JeF/1L+RqVAMqf8dqaDvWwyfvlkpm2AuMEuBT5i91mdqu6YNKgFBTcfasm6EIJWihQpe24UvPeuNlv40ENfFUnh3D0YhFXxhGnibjwBDKK3AwOGhjRiWvZEAr8yyFFJpWU8xx9eaS+7IxAyTQ2zxLxpa3zKgy0jxaBsX37uX3ZW0EJMsfgBH35sm2V/aAEObAvRhNeRgYEoYOBQ8YMLoMtX0feNHaqG3VALkawLQ0BwAGsgCYsHLAVy4ZjTHI99UGBpt8xPnzShGsj3a5FtviJxaBoZefAKBlMOI781XYQSiDvOV5ABPkLxHUNdgHIQSH0Il+9r61MuTGkpwMfW+ctadmRUtyLb/vfAmUAKHzZdyQT6AAxS0ZREltlM6yys7mIiqUoWubU+BNq8w5hxee75sNRL0mNFGyvCyKFhXbiAwC6puR4AlaTpeL6WQWQU4ACp1iR+nXQ1iJ954TF+UAyPzvyBgBEoTMhBEYZcAvV43cYYcdUk4EZqQtqySWNclR/jx6uQjGDq8awETFV48h40toADgA4FRY1E/CFlgZjANgUJ2fwLhXywLYYpzlIgAJ3tU5lmQCPfpen3pvSYjCCvrZp5aF0ISUAAQAlKPR0c21GlKJ9oBGlwChB3RiZ7wCg4814LmJQ6OEs6dJkVHaaEnr15WC9UFD8nQoKR5NLr2bvS2KOK8zzx4NT5LCEmf2oUApEz/dI+/0Rwm6NpcM9v+sGLW1+qOd1edTwu7jftnjbS8YUTGQRynOnOnUzpB/Z91TjgG6X8Y76leuQfWRgV6WdWe1oy33NcbkDfC8gRqGtaNHLkVtpY4EO2ECY5HXXV0FsaPPcb3xYqUHcMbbl7PBo24OcGuX8IU5J2fAYT5YnqissYRhYQptXBqAMbcYfsyBuajYlPOFUjJwNyfNRz/dpy0rQlojE+EpDBTAha0oE5xbI7X6O6cECPXXJ3XRItQkylFRHbSm7V4pHCsbFFOh7HhGYpnOpZQYYXQpJeRvlE/1J+/I5wUpQgfl5O/5cK2/Mb7ux7jnpCpKrClIcF02atpQTf0618d9KChKmSGQUMWr8jODEeCEAs0fbfDspoVzrM333nIy2lKopy46tVLARwa+MAOGqBGWrmI0eODGhHi5kEetjjw+qwFnre5dfR9j3Dhd1rLKDMCdh0EAtjNAQP1jD2rFanTGO+Z7kikmxGoRYRKrQdqbM9KZ7Szv3bIESoDQsox65Rk8EKwBj1PSFIUFIKA5GU6GJXtdkpfEcXmj1rf7nteUDXb27v0tK0H3x0JQmP5uyRawISvex/P8nWL1cS+fpmCgOmyRE9oyaHAuD8r1+ad7ODLDkJkFwCazGDwu7+LjvcSkFcXxkzckAYuHB2A00kFWMu6xIJIsxeFrSSt3hiy0WVKifQ/Q/lZElPHszpB07e6pz6z2EJ6U06JuRSOG42onkca9UwkQGrfvOrXlucgKSlfMVKxa7BMYYCgZU6GB7OlXU/9La1j27qs9jerfs/FvatCbAoPqcEIGCE2T6HKWtxgsIGJJmpAIkMMzA0LEdn2AE8DHudnTyyDCezGi3hUgwii4j0Q5tHc9xOhbOxCAJCsHJOkBONbUdySW39rnduQ8fQLQWFppdYVCQfUOajryvj3hWuPM6gx5EOaJnIryaEwJlAChMfut01vNwMrqVqFNzBcgAAbq3aAsSzDeCbgAAhgeDAXggM3wyUu/MosBCGAyxKgzkACcABYxfIlutYiHd3pnVh6g7arpiXHLP5CYVq/9mbeWFrsnZ0l6ii9ZVVOvbe6qfqz351h1gTkwxiRC6rPyaEwJlAChMfutbHUnSaA6ZwKYkEthvbdEOfkXEuVUopNoZmVHI2VnexeV+WSYK4aUyyB3kijbdVvyB9ys9bfKQIgLeMtV/7bddtt23be8qOskgKHDrkkAlYsgROnIc6vWCZFd92a970klQOh9fd49b7x48avP7dOne9rQwafm0AbvlpLLCZQdvG2XXQ4gWMEg6c/SM9X46ukg11zFUGgLY6WNPFE5LxJm7VNQHvUrASDA+AIQ9J8CUdg2oM8yTzU2rG5obx2L+n3zntmyEiD0zH6tj7datCBiwfSI2c9GvPJwxNxJEcM2jlh5p4i+/eqjjc21YvGiiEXzI/r2l80opbF+29qGlgmtqGlhAyGrMKxMqYcD8MLQ2JdAJUeFgqyfl3uAsRHHtrxPgmKjbrFdD3LuijYACGpVqDgqhOV3yzX1KybI3zEKJYvQFb3R8WeUAKHjMizvUC2BZFznRsx6OmLy9RHT7o+YOy5i/jQkY8RK20dseEJEv8H1KzdAZsKVESu+tQAJAMJygyOWWz6i74AKuGk80EB5S8b0sQKju5V0Xs53+eWXp3CCnBeepdCHOhMSYlUW5IUyLOpylJ5n/U4bLZPnYktvoQV5CPoLG2Q1EHBqN8zuHnf1LcH6al0JEOqrPxqzNcIHi+dHzJ0QMe2eiKm3Rcx8ImLhjIj+K0csN7AADH36Raz1qYjV94ros1z9vuu0eyOe/UXEoDUjZj4asWhe0fb+IyKWXzdi+fUjhr0hYuBqEX0HV1iGyus0aPikqztDuOOaa65JHqbKfxLbFAOynNH6eStG5Hqo12AVig1/6i0k0tUya4Tn6TM7eKqTYrWTFQ32oDjyyCPTPhblcsdG6MVX21gChMbqr/pr7cJ5EbOejJh8Q8SsJyIWvBLRb3jEkI0ihqwfMW9ixEtXRsyfErHaByJW/2BE/xXq7z2WtGhxxOR/RTz3q4g1Dyz+OvfFiNkvFkzIvAkRC2ZG9BsaMXD1AjD42W9YxICVI4aOLdiG8mhWAlgMmyIBBrYsFpNWBEhuhMJceatg59l0yN4LNooSflBjozzqUwKAQC4gZuWCVULyRew18clPfjKBhXL1SX323bJaVQKExuuz+mgx1oDRn3RDxIz7IpbfIGLYphEDRlZYg0ERrzwa8dQ5BbOw2l4Ro/crDGtrj0ULixyGxQsKT325QRF9MQ+dSe8vjphyc8QTZ0WssnvEGh+KWG5IxOKFEQtnRcwdHzHjoYjp90bMeS5iwYyIhTMjom8BFNY7JGLYZq9lFVr7vj34PAYf/WxnQVs733TTTSmr3WoQex9IXAMUshGxrNHujVZc2PfCbo+l91lfA0T/AQaWA9uMSm2Nu+++O/1NiWUhIatOyiqK9dVvbWlNCRDaIq3y3FclMG9SxHO/LdiCke+KGLxGkWMwf2phLBe+EvH4dyJmP1UwB2t8JKKfPeFbadwXzo2YcHXEy7dELJpTGGkAZNS7IwaM6kQDvDji5dsjnjw7ok//iBXeFLH6PhGD14ro07d4/5xngS0BkiRhAglCD0M3LvIUyuNVTmbx4lRjgmcp18AyOKWv1WSwi6BkyercAoZH/QMbNDkP0yB2XXqg9TOogADhBPkF8g0sAZbbou/sdnrBBRekrcTLPqufPmtPS0qA0B6p9fZrsAdT74h45aGIUbsWBlOsftqdETMfi+i/UkSfgRFTbym+X+sTlb+1FhzMihj/14gXL44Y9a6I4ZtFvHxb4bUPXqe43/LrvWqwa9ofFYDw3K8jVtyxeIc+AwoGZMRWBVCpzjOoXr6Z21HmIbwGHNg5UFW93/zmNymfQEVONSTsr9B0YyQGBoCwY+ONN94YBxxwQJx11llleeWajvH230zuCDBg6ekVV1yRQIJwgvCPvUnkHgB+QkjlBk3tl3O9XFkChHrpiUZqB0Aw/+WIWU8V3vb0/xZhBImHEvcwBa88EjF43Ygxx0QMWr1tHr8kwSfOiBi8XsSaHyu8comCE/4e8eLvCip/nc8UiYKtZSRaLd/FEROvixj3p4gxRxdhhefOjZj9TMRKb40Y9Z6I5dd+dXVDq+/bO09EPwsRYAGsWsAEyGaXV9BcNrvKljbE+tGPfpRAgb0vtttuu9IT7ebhY4mspaiYAR9LUR32LVFNdN99901ATogBOJB3ULIH3dxpNXh8CRBqIMRecwveMoPJm5/0j4I1WDw3YsDogoofsW1EvyERT5xZ5A5scHS48IuHAAAgAElEQVTECm9sm6ev/gDvnZEevU/EzKci1j04ov/wiIWzi/yAcX8uQMO6h1RyEmrZAwDC9REv/D5izNcihmxYgJ9xlxSJmBIQV3hzxKh3RAzeoMiLKBmDZjsADW39u0RDXqY8A0yCja+aggPMgbwD9RmEIeQrHH744ammv420yqN7JKBflBm3YZYcg8ceeyz1jXoUVitY0vjmN7855YrIGbGcUdihXmpsdI/Ues5TS4DQc/qy894EMGDwp/03YuI1RdGjvgMLULDidkXmviWADqGBFy6IWH3fiNEfamNBpMURs56LePz0iIGjIlbaKWLcH4u6CYNHF/dXfEmioDYtv1bnvPP0+4skRSsuVt29YCmAE0zJBO//QMGWeO8Vd4gYsXXx/jlHoXNa1XB3tQmWZYu2C99kk01SXsHmm2++BBzk0rsK6DAwchSuv/76BCb23nvvtAsgg1N6ol3f9fpGv1x77bVpLwzVES1FlUiKMbDiZMcdd0z/xwzZBAwYFDo65ZRTSlDX9V3WKU8sAUKniLUH3ZRHP+PBiPGXRUy/K6LvkKLY0chdizwAFRFTakGfohjS42cWNQPWPzxiQAU0tFYcVi2Mv7Sg99c5KGLQ6Ignz4pY90sRw6vCCTnu31me+5zxEY+eVCzVXO9LlXBCKiZfAIUZ90dMuq7IiZCMOWTjYsUDtkTSZqevtGitQLv3PAbFTn42WbID4+677x6HHnporLXWWqn0rk2x7rzzzlRC+dZbb017Xohby0048cQTY+211y7BQRd3IWAgz+D2229PYZ6rr756ybbswB3Ap38wCHl79XvuuSf23HPPtImZPT623HLLst+6uN8663ElQOgsyTb6fRlD1DpgoCKivANswWp7RAwSgx/wemp97sTC817zgGLFQVsN+PzpEY+dWiwp3OiEwhg/dkrE6vtFrPy2tt+vvX0wb2rEYycXiZZjT3x9XYO8isHqhYl/j5j87yL0guUQfpCrYEUDlqWtMmhvm+vwOsbGbqC8SpsvMSCSEm28JKYNQDBGQhH9+/ePzTbbLC15ZGwYoLLiXtd2qn7QX7bWloAo5KMPbfWOMbA9uAJW1XuQWJ1itYmkRVUvgUHJiuXRMyRQAoSe0Y+1fQsJgdP/V8TdhRPE+1d5T8RwHvLQpRu9OeOKhL71v1LE5tt6yDd4/LRiKSN63zLCR0+MWOltEau9v+uqLwImT3wrYtYzEZucETFwlebfJOdkzHw4Ysp/IqbfU+w3IV9i6KYRK25bACXVJIUkeiFYAArEra1gYESsUEBJMzI285HkJl69yy67pEqJyis32iZYbR3m9XZ+LnJ0ySWXpFwDuzDqNysT5BkceOCBCbw13e7ddZdddlkqqQzQqXap/kEZEqq3Hm5/e0qA0H7Z9bwrU67BtIhJN0aM/3NRPtkyw1XeV1QJbCnGDiDI9mcY23PMm1LUPVhx+4gBK0aohfDoyRFDxkSs9fEidNEVBwbj+QsjXro8YuypEUM3WrZxz6Wmvf+UfxdgQWnpvn0LJgHAWfEtBdBQW6GXAYVMW99///1xww03JNZg1KhRKVlR+V0/hRZKxqArBverz9Avlp1ed911aQWCcI++0RdWmxx00EGx8847p0JHTY2+awE/lRKFhySiyj3ABJVHz5FACRB6Tl927E1SLYMnIl68KGLqXUV+geJGEhHThkWtONxDsaQO7bNgW+hKvQQ5CTx54QwVCvu2g5VoRbNfdwqDz8g/f27EBlYyjGm9UddmxZMkdE66NmLGw8VKj4FrFCsfLJNMYKvn7BLZFhFjDxgXBid/2nJ9eW5tJKAPhAfOPPPMlFw4efLkZNzlD8gTwehYZro00GYlg902rTjBAGEfsD8le1Cb/qmXu5QAoV56otvaIfFuTsTUOwtwYLXCym+PGPXeiEGrtcwadGa7AY5nfl6wEht+vW1lmjvargWzij0mMACpAmQbD21fMLUI1Uz6ZxF+ELqwbNLKiBHbRPRfsfXAo42PL08vJbA0CeT9MJRCZtixBjbKwgYocqQS4rJ2zRRasAOn3BIrTuQsqINQ7rTZ88ZcCRB6Xp+2/o0YMZspWbr40lXFPgqWJqLDW8satP5pbT+TJy8PgoHd+JTC827EA9iYdlfE+L8UKyCESka8OWK1PYtiT2Vp5kbs1YZt8/PPPx/HHXdcWnbK41eISnjAvglWmyzrwADdddddCUw8+uijaedNtSuGDBnSsPIoG750CZQAoTeOjkUqIU6OmHp7AQ6sVlBG2GqBwWt2L2vQtD+Ag+cviBh7ctG2hj0WR8ixUABKboOdIZWkXn3viFV2i+i3QskmNGzfNk7DhQYUn/rBD36QvH9bMcs/kAvSUg4I5uHBBx9MzIHNtgAKtSuEGMrQQuOMgba0tAQIbZFWo59rdYKlebYzVvRn3stFrsHInQqPdrllrFDornefdl/Ek98pcgGG/193taJ2z9UHQheAjzwHQG34FhGr7hExfPPX7/VQuyeXd+rlEuD9Cw0oajRu3LjYfvvt07JEe2O0ZOBda9+FI488MtVGEIYQWth1111bBBa9XOwN/folQGjo7mtl4xU7mvNCxSj9u0gkHPZ/xXp9y/HyFsz1mF1vqeEjx0es8bGIUbvUF7vRSvG/7rS06mFBsZfFi38oNr5yAGkjd4kYuklE/2EdTPZsb+PK63qqBOxzoVYBA7/GGmvEeeedl6oitgYc2KDJSgUbaKluKblRwaRySWpPHS3Fe5UAoSf3rxyDuS8VVf8m36hOccSI7SJG7lwU9bFLYT2Cguo+WTAj4rHTivwIezIs146EwXrt41xHQYKoCpJqTlgBooIjRkEuSFu2yK7X9yzbVRcSYOR32223sLum3TJVSmypqBHmQBlsG27dcccdseqqq8Y3vvGNtMtmS/kKdfHSZSM6JIESIHRIfHV6cUo+nFRZk39zsTJhhS2L1QnLb9B8FcQ6fZVUwfGFiyJe/k/EmKMiBnfS/gvd+f65vzAJ6ii88mCx1FP9BAWjvHNLNSi6s/3lsxtCAsogq4bosM+F6ohLYw8USho/fnwqnQxIqLCIdZDciIUoN9BqiC7vcCNLgNBhEdbTDRQ6quwV8NJfIma/UGwopAoi2ro91Q3r4fXE6184P2L9IyOGbVIPLeqcNmAU7Gcx9ZZiP4rZzxWrHNb5XLE8skP1JTqnyeVdG0MCEgwvvvjixBw4zjjjjFTWunpponOUwJ4yZUoqfiQEcc0116TdG8eOHZuSG5XBblpRsTEkULayPRIoAUJ7pFZv16SY9qKIOc8VWyFPu7vI+F/tg0Viny2KG/mwg6JYPQZBVcOefuhLuRfP/aqoLDlozaJ8tWTGeg8J9fS+aeD3e+SRR9KqhSeeeCK22WabOOecc9IKBKsX7Ivhe5UugQKrFfwtb7IFHCi3XNY6aOAB0I6mlwChHUKrq0tSnsGEiEnXF3kGyw2MGLVrsQ2xPQF6gkGZcG3EixdGbHBUz2YQmg4s/QoYvXRlAfjW/2rBCJXhhrqago3SGMsazz777Dj99NOT8bcPhpwCiYYSGDEHdtTEJKy44oqx1VZbxf77759AhaqKLSUzNoocyna2XgIlQGi9rOrsTOGEmREz/lcU4Jk3udgDwZr6gd1cAbHWkpp4faXs8ZERwzer9d3r+37zZ0Q8+8uIiVcX4ABIGLx2CRLqu9fqtnWTJk1KW3DLLZg+fXraSRMgwAzIKxg9enRiF4QSdtxxxwQUSmBQt93Z6Q0rAUKni7gTHrBoQZHI9tIVld0WN4lYdc+IoRtG9LWhUWUvg054dLfcUnEhDML6RxS7I/a2w/bTT50TMeVfxd4Y634xYvC6PYMd6m192c3vCwxgC2y0ZNdGKxrkHdi5ccyYMWk/BRtpCS20VDipm1+lfHwXSKAECF0g5Jo9Qq6B1QkT/x7x8m0RA1eNWPltRYGdnlyJb/xfI8ZdHDHmmN4JENStkJPw1A8jpt9bVL1c5/Mlk1CzidX7bgQo+Fit4AAGfEq2oPeNhWW9cQkQGmE8AAaL5kTMeChiwlUR8yZEjHx3xEryDHp4iV7v/uIfi/fe8LiCJemNBzkorPTU9yNmPBix4jYR6x5SCSf1MMaoN/Zv+c6lBOpQAiVAqMNOeU2TVEF85bGISf+IeOWhYtnbqu+PGDS6Ek6o9xfoYPuEU579RVFt0I6OQzbo4A0b+PK0uuHpiCe/F/HK/yJWfkfBJAwc2cAvVTa9lEApgXqVQAkQ6rVnUs1++ybcEDH7qcJTxBiostebqusBSE//uCggtN6hESvvUK891jXtAhJsIf30D4p9NWz2tOYnGrfGRddIrXxKKYFSAu2QQAkQ2iG0Tr1k0cKI+VOK9e9K8A5a/VVgsJytWHsZnbx4YZFvgVYfvU9E/xGdKv6GuDmQgFF54qxiTweFlEa+s9w2uiE6r2xkKYHGkUAJEOqlr1KewbyiyJEkRLkFq7y32G2xT//enbHOIErUS+v/exlAWtr4xKyokfD8hRH9hkRseHyRrNoT6l7Uy5ws21FKoJdLoAQI3T0A8s5+0+8rWAMKfsS2RWnkfioglgaxu7uoPp9fqYOhJPOUm4pchBW2LgFCfXZW2apSAg0pgRIgdGe3oc8tX7OEb3EU2xkrjdwIuyx2p9zKZxcSSOByfsT86UXoJdXAKI9SAqUESgnURgIlQKiNHNt+F5sqTfhrkXC22l4Rw+yZ0AtzDNouufKKUgKlBEoJ1EwCCkWpAVHuM/F6kZYAoWbDrJU3whpYtjj5umLJ4tBNIwaMKqnhVoqvPK2UQCmBUgK1koD9KX7+85/HDjvsEG984xtrddsec58SIHRpVy4uNlSyje+o3SIGrFzW1O9S+ZcPKyVQSqCUwKsSmDBhQhxyyCFxxBFHxFve8pZSNE0kUAKErh4SC+cUseI+Zby4q0VfPq+UQCmBUgJZAkpN33///XH44YfHD3/4w7T1dXm8VgIlQChHRCmBOpdArpvfXJ183zlaqqHf0vd1LoKyeaUEai4Bc8eulj/+8Y/j3HPPTRtW1epwb1tn2zHTfZeV35DncGvmca3a19r7lAChtZIqz3udBAzsRYsWpS1jbfriM2fOnJg1a9aSpB/JPzNnzkx/z9vK2inOHvR+Dho0KJ3r//3790+GLm8cU48TpquHgQSqO+64I5566qlYc801Y+7cuUlO/k6mr7zySpL/8OHDlygh31FIgwcPTvL0c4UVVkhb99rSl9x977tqgJH7U59m2Vdv4tMUZGTgUn1+7r9qOVWfV/08fa4drdkkyHWNDnK8g77SP37XD/qyPLpHAvTV9773vTS/5CEMGzasZg2ZPHlyfPvb345nn302fvSjH6W5t7TDuffdd1+8+c1vjqFDh9asDbW4UQkQaiHFXnKPjIopNkbh9ttvj7vvvjseeeSRpLwZK4PddrIUXwYPAAKl6P/ukZXiwIEDY+TIken/tphdY401kqGDuFddddVYaaWV0v8Zt2rDxrA0urFo7ZCZOHFifOELX4h77733NTIkS8aVXCVakQmFl2Wcv8+gjKzJk1zJmjJ0vfOygWa8gDsgJPeT6wAMnwzssqFzno/nu482OB/oc24GIL7PwNH5Dudoi+2FJYdpk2v1t58ZrHinKVOmxLhx42LTTTdN1zXaQTY8yf/+979x2223xZNPPpn6atddd4199tmn3Fa5mzrUmDz66KPTWGPMjdlaHPr2V7/6VfzkJz+Jww47LD72sY8tlUEwN77//e/HX/7ylzjvvPNivfXWq0UTanaPEiDUTJSde6NqGooi7w4jydB/8YtfTNTZ2muvHf/3f/+XlDyFzhhol98ZfO1lbFyTmQGTwf8zkJg6dWpSnC+88EL6u98BjLwFrXtmgwMgDBkyJBk5QCIbOojbOb4jEwfDlw2Un6utttoSkOGejQQuyJQXQj4vv/zyElDA6DCW5Dx79uwkewovy8755A1AkPPzzz8fzzzzTEjKAuCyUSeLDCqqWQP3dW1mh/I5eRw259FnpiD/XNaMyPfRZ/rORz/qW2PLc7XTuxlH4sOnnnpqrLLKKp070Wp4d+/oHS6//PL4/e9/n1gg77nyyiunz/ve97740Ic+1OHldfVMUddQnDW/FV1z6KGHxlZbbRVf/vKXO9wPuYGTJk1KoADjd/bZZyfQu7TjnnvuiYMPPjje+ta3pvFdbwC4BAhNeq5aAVKK1V5ZVnyZEl8WPepaStjHPfyk9Krv7/esxClH98uKOSt99/E748CzhjCh3a997WtJyXTlwYC///3vj3XXXTfRZox2e48sSzLJcnJ/nqIJxpC99NJL6ffMSjB0FK4PA0iu2VBlajv/Xx85gBOgYp111kme6k477RTbb7993U3ELEf9DYBlYOTv1QagPfJ2fQ7/AGfkx+j6G7nl8JDfc/ghjztjj6wzs5CZIGM1h4XIOo9bIMUHU6BvM2DLwDGDOO+IGcj9aXz7ADLamBkMY23PPfeMvffeewm7lPu2PbLoqmvI9H//+1+aq5iDzTbbLL3DlltuuYQ1y3O+o4AVy3TLLbfEzjvvnABITzuMBWOQLjDusE21MKRPPPFEWsHw+c9/Po2xjvZDnqv/+te/EkBg8P1c2ng1x84888zEHPzyl79Meim3IQPylmoz5Lmd9V8t3qF6/PQqgJBpS4pIB2TPNnu6/v7iiy8mRcUYMVbjx49Pnm029K6jRHmwa621VjKWo0ePTpNe5ziX8nvwwQfjrrvuSvcwuKvj8NWeVvbScjw2d7jnVRtRypYnLFb2m9/8Jj772c/GLrvsUpNB3VqFQnGjRL2rNnRG/LTaGDYFU9loURQMCc8akNB/jE02YvpA/zFUDJyP7/ULgCUp6e1vf3uXyq61Mn766afjxBNPjPe+973xwQ9+cAkr0trra31eW8FJW8/PSjWPe/OPwfN/YRBjngf2xz/+Ma655po455xzlhnPrfX7t+d+2s5IWDpnfvsJHDBqtVbg2sfAnH766XHVVVfVHUXdHvlVXwNoCWF6v1tvvTXpnN133z2+8pWvJIepI/K88cYbU99897vfTR58cwe9ywbQPfR8BrhLey/n0S9nnXVW/PnPf05OydLayPHJ48L4FkrNh7589NFHE4BZmp71rIceeih+97vfpbmCjap1iKLXAAQdfe2116ZkkOuvvz4ZC51tMvudEcneTzXlmjssg4tstLP3pfOqE+xyEpKf0F9WCvm8HJfNitTffTw7e1w5lpvRI0AiyWXHHXdMaPeBBx5ItOU3v/nNmiDp1k5iMvrUpz6VkLzBX8uknta2oWl/5L6qZnr8TjFn5sY52AgeAxABAKIUaxVzbGvbl3X+FVdcEZ/73OeS4kJ/tuRB1PLZ9XKvPDeyYtWXqNrLLrss/vCHP6QQRD0fnIIDDzwwjUFeJNYAW9Dc4V3Ne6AI62KeA0StZUmMcUYEWyEjH1vW0nPoJM/piHHtCvl7N8zI17/+9TRv3/GOdyRHi/7eb7/94vjjj2/RYC+rnZdccklieH772982u8SRnuAIXXzxxalvtOMDH/jAMvtGnx977LHxz3/+M+nIpY1V/f63v/0thWw//vGPx3HHHbdkrhsPmAfGX34Cvd90PLgeM/WlL30p2TTf0xuAVEsgpi191ysAAmGK9XzrW9+KN73pTakjDDReJW8zKyQGwwRD05lEDKAYNwOu03LIgTGnBAxaNLt78GQNDv93Lc9n7Nix6afrKYhskKo945zJnJO9dJ7zJYVl6tb/tUlbnM/YCTH84Ac/eA3qbEvHt+dcbZR0gxm58sorE9XXKEeWOW8EnXfyySfXJR3797//PSmMT3/604lJWJphaRS516KdDIWQ1k9/+tOkrN/whjfU4radcg9tvfrqq+OrX/1qAgc8xKWBPGMS2L7oooviH//4R9IjdAZgKOeiuVUjOcckr0JhxNDjcjcYs+aod8+hn8hO23je9MeGG25YM5CQQ3u1FKqcDXLEqp122mkpPEgHmR8ADja1IyCf/gQSyL/pEkf2AXjAzvjuueeeS9UW6Y7q0Gp2HL23PhEy0z62AvBYGmDjbKm/cN1118XPfvaz9G65v/XVAQcckMY555Uj2DT3xnOxaUCLHIrHH3885TwAJZjtWoG/XgEQ0PVnnHFGUrY6JSMsnZiXaOngpnGcZQk5X5cZgerEupwI11kJcaj1b3zjG2mJTlfGHMkRtYfqQ4EJszTaASheeOGFccopp3Qp+9JaOf373/9O3pFcD15zR/I8WvvMej8vK1tzmDIH8uv1oAfy+GLAhLKaYwMoeA6KeSx0In+AYmeQPvzhD8cxxxyzZJVJ1jE8yhtuuCHpLOODd8rD/uhHP5qYPZ5rXpFSrbvM2xNOOCFR0aoFoq5dw/g2BS/alcObOfm4WtaZQc3393/hPAaUI6NNdFJHDZR3RP0Dhhy7vfbaK72bRFvetffXfgfnDVDITkCWt/8DFBw3baruB9+RFy8cK5UTCbOs/d0zt9lmm2SEjzrqqHQfBjgvWdRGIObmm29OukQfAnnCsO985ztT33L0HM7VFgBCO8gMsBMSACSys6VdVoZxYOQnaCOWwf3yKiOOonsAhDm5EuDwN7JxXXV+Wg7f6dfqJc6tmUO9AiCIIX3mM59JdMy73/3uDg/e1gi2M88xSXgnJlBXAgQD3GBFafFEloaOO/PdO3pvBtgkR8XV0juvTi7M922PkkQV8zp5khSAfI/efpAtz41HJ1ZbzwCBMpZ/xAPUd6hjRjmvqsl9yZAw2sA24yOfiJ7ifVrdYPkdpf/rX/86gQyephAL5wbrwLvENJCHc8Tl86oi96h2goAK89Y5mAPhK4YLfZ0NK4Ol7RgJBpnMM8uQ26w9whiWaQqhMELAzXe+850EOhx77LFH8vY7qhvI4hOf+ERiSH/xi18kA864Mn4YTJUPx4wZkwocCc+QBUPvud7T3GO86UmH+V7t0DD2KHkrqAABRpcRxsQwxLx2uQRYK892LgBAZmQHCGJ99C/vHdDyXB+AggOy7777pr/n8La2GhtkbgxjL4488sgk55xn4L6YHiEKcpXLoI1WOgCewIP8s4985CNpHGBB7rzzzvR3zDJ7cMEFF6R3cnjPm266KQFrrDfAgwVe1sqKan3T4wGCgS6uS5DWptZ7/LI1xgDlZgB3B0AwUA1yAGFZxT9a8x5dfQ4FSKFSMJRYLWN1kuv0iQlKSchIbk8Sp0mMQUAtautGG23U1WKqu+eZw8ASZc8L3m677equjdUNYhAoafPT8clPfjIlnKKqjTnfew/KnzEBCIFvjBEgAAihjSXR+RuwKOmRwXEfhgJgwjgwgpgIhvld73pXMmISpzM4ZVTN2YcffjjOP//8REMzdq5lNI1R15900klppY88HYbWoX2MtHsJqwIi2iNZjy71N44XVk49C46L+wIRHRm3jKT+ZiCBKIwK2t3zgXuOHgaEHNUI8SyrRORikBv5AGAYpz/96U/JO/c3csyHhGtyZ1hzYTHAyjXACQMszCDn69JLL03GV12DvNIAsANKHnvssdhtt90SE+E6hl+feK7ftVGuASaAQddO+tOhjRij6hUU2oI1oQeMdyDEtd5BQScy9zwgAvjACmCU6QzOhblCbphecgRC9OOIESNSmMK53tEcao0D0ysAAgSqQAnU2RMoW3F0SNZAyBRWV2jMnKQI0UqSrM667Yrnd/QZJgwFx/iK79cyARDFSnH95z//SUqEgmsPgKKUDjrooEQlU2q8x95+AHZyXshF/1GGrVFu3Sk3Y43xkUjHw5NToP3YAd8BDRgG8WfUMINiTmMTAEwHgIF+BioACbS633mijLtwKRAhzMCISYZsethrAHhgDBkcwMX1DK9CTQ5GF2OxySabJOPFM2fwgAYG0uEZ+++/fwI5+kDVP06XdjGEMuh50+7BKAEK7T3MTwwFgypMAxzQ3Ywx+UgUBGyAHwAGsKHf6UUJfd6PA4D6z/VRgKPqnCksyHve854Eaqxg8N7uI3SKFdFXmEDy9s70hX7J+WueK18IKNGXwAJ2kvHGsBqvcjyEhQAc76Lt2CQAjaHGJCiQlAGvce7vns2Ye2fGnbw918omYAxz49lsGUBhDBlnecm86zI7AlBiTnKlSCACmGvtEvkeDxAIHUrj8QIK3Zl5394J0/Q6A9EAMcnb46W2tx0mpMkJGCj8Uou1yO1tS3uuy4WeeBkmdnuMjAmJUrTMkjeWk8mqV0qY+JR1exgKnqTYKg+BoqPEevuR47JoUyAMRd7aLP/ulJ0xgVnKiXCMESPztre9Lc1dBt878TB5+L4TmqD4ebgMBebAuf7OYPFIeZi8WTlIaHD0PsDOsFcf5GblFm+Y4cpeKEMvZ4FzYakdEMBAGttYCD+xrgAK1gKgYSA9V2IcT1s7sAfAhesZRQZZ7kQOYbRX9owquTCS5hgZbr755ok1MK9yYiImlT7KyePmjpUO3lN7UPHmELnR/bmMsbYLAWBqLEOUfIgREeYB7IEJ1L/+cX/hHEY1lzjHsHhHwMh5riUv9L32AXsAgvwCIREhm5xHALgAPNokNAKQYBX0FfYG4MLAaBNg4TlAjnHv/2SAeQAI9Yuwk37y7lgCLIY+EUoHDuVDAIfYzVxnR7+0Vvf1eIBAiAY1dGlC9QQGAYrkWeTEy/ZOxLZeh/aixEwEyqKWHnhb29Ke8yloqwNMNpO/tZOk+lmYApM4K/Tq5Uk5SSqf35778wLcE50K9Zvcvf3IAAEVyxjlZLxGkIu2M7gMAaqfEmdweOhyBqxyEvYEBP0/A34AlJJ3LgOU2Togl7dKB5iDqOQcRs35KgwgL5wzJExFZkAxg4aREmtnLOUdYDl4m8YdY8nAYxN8h8FivDxT8pvS6jxe97KCC5MjJCKkYV5su+22adx6n/aM/dyfDCQGARshZEIOW2yxxZLkR4j+ZiMAACAASURBVPLEJtDngLT3BGyAKe+gLd6DsWZUXcsLz8CCEQWYABHnkLXvnEMvMPbAGSDEM2czcvKic7ElrgVG2BV/wxpiXCzBJIOcxA2kcE7pTd47ufHwGXGgzk+sgtwPRlx/CWdgaLRT+AfA0Bb6lmPjHOMCiKTTAD1MARYF+MCAcFyAP+BQX8qlIIe26uweDxAgK5MIfYSS60qPu7MUmIlqYMmS7cgyn7a2j1FEc6HXeDUdUQJtfXZHz6eoTRzGnfdlArbnEAM00U00HhtFW0s5UH4ymLXRhxLu7Ye+E7rhDcnaRtU2AoOg37Rd3RKskGQxIQae4/rrr5/oY8YnF2yrXhnAqPAWKfbqkAqjASjRZ7xRnjaQwZM0FhlzRhzDxxABIkAx0MmLzbVfgH0etEM+g2sBDnF6bWRoed8ADQND9owho8bQ+BujxZiaC1gRjhhA0ZG+AXaELhhF4RD3rV6VwGACBfQfYyjeTydJusOqYg/oe8wHuh4DQI7GTJavcInwCgOr7Sh48gFKePbuiWXJeUXABLaUbIEX96cH3I98sDHGpdwM4ADb4nlbb711kimD7hByIHOAx989M7Mi+ts40Rb6HWvAdjlHUiEQYCwJV/kbdsDfgEr9C+BpA7DBeSQP58t1AZYkXwJU2tSW/unxAAGSRoVBhtBUW4RTj4o5x2MhWICnrYiwve/kuZJkKAoeBm+oloaxve1q7XXaT4maLGhZXlR7j85Y853bkqllnpnQGGXS2w/ypjQZQ8oQMG6EeYwKBkopZgqdl0sHyQXghaKnm3sPnp/kOywBo8dDz4dwgpwCRtEcxDzYxIoRYrTkMTDsPFpGSOzbnMVAMFzAiI2/eL3a4m8S4bBq5rX7M67Ze3a+3CNGCqPAGDJ0sux9hB2BC33inTJgBmQwGZmab+0YzitWOCAAMuPM6xYCAbA8k0733uYIB8mc9h5Cf4y8axlPXjljKcbPcGZ9JfygrcA4hoKRZjgzu6zddAWmCihg+L2Xd5V/ZY4Kf7gnOQkH5NC17zG7dCUjzdDLRXIusCOhks4GQsgcg+O5nA2gxE8shDboM0xG9Uo1jHguQ583PPM9WyD0gQXxPnlcaSs9gp3QF1gONRdaO396PEAw2QxqisXEaiSj1tykMkB4HhChAdVV70NJ85x5MxSTwV39bN+b3Hlzn1xYKntRPJf8yUVeuqrtuQ08EkrQJKIg6vGgYChoil3sWuy1tx/GFq+PNwjsix+3VsF1tey0lVExVyhsfcgTFCoCCBgZ+ojRzrUOchvNH/0uDs77R087p5r1ND54sICjD0PJQBjTvGrMAd0AKKD8eZY8ch/GlIcsgRCbIOaO2QAWnC80QF+KaQsjAGSZWpfLgN5Gf+daC4wd9kLfaCP2IS8llASoHXRVW8v/up+QhnthJBhE7AXd5//yMdD7gI53x8aY24yh7zw3z/m802m1I6U/GHD6SBiDIW+qi4At70ymcgPcmyH3LkKsGEjvy4g3ra8AmABaeaM4LEPe1r66r50jyRSAcE/5FnmHVeDFfTO7tLRxbLwBRkIM+lZugvtUHwCV/sdG6XtgCkhoDfvc4wGCwU+pMAz1Wn+/LUoMmkfxWzsL9XblQfHJnpYBKw6aC5GYEChLIQiDnpLxt7xtsDaayGKkJpiPzGDKBfLOyXx5E6ysgKrfraMGAWBBW1KkqFCKpB6PnKBFaTAwqOTefhhnFDWDyTs09roSXLZW/trJgDOwgAEvmrLGBnBQGBN/E/PnFaN/zQnXYRssvwUOeOiMI1DRtBhZ3o+EMXAPYCMvORa64CXyYIUJ8pxhIHiRvFUeKkeJYfQ9yt49814y3jWXL89GNedRSKYUUnCI3QMn6g54vjAFijxvtMUoYkwwC9lgt1aO9Az2A9jRPt67lQacE6CnuUJM2lzrwnT5vfOOooy8Z7dktFv7nhnE+Nne8UyvCVvQbXJNsFPNscreASNixQNGSqjIWGnp6PEAwYQFEKB3qLO9HdGSILvqexNQ4o3s2K4uOQvBQ+2oT54QMACAQfgQtwmVS0pnxEzeBrHvKUHt939/N9kozeqtmQEGf/MTTQjdiyvybngKfqcwqre7bk2fAitAIvoV5QsgtOa6rurX/Byep3AY8AQgdGS5WFe3vVbPy8meWenzpni4aNLs/eg7QJUBraXC7sg75PX7vHJt49WhoHma2Vsz9hm+vDyQwRbP53Eb75Q8w2oetQSKyUfoBW0s3i4ejd2z1K/pChpt8+y8KVx73tPz9AXZu09uXy4SBqAAI54D4KLhc9W/tj7Pc9wPWCAXAKa5yo5tvW9PO1+oAhjUJ8IpmJ/qw1wCDuTwYBCsrgDqsCNCUy0dPR4g8GyhbLSciVePRqGlTqr+njKBpFFG1YU/2nKP9p7LY+F9G5QmPuXsQxEw6pRCNvjVCi6XGc17VugTCUDAG8VGCVA2QAQF41O9TXam29zb83hYULDn8rCxEQAJCjBvoQtFU4omCOXs/oyL/AOGpmmIpL0yqfV16ExUei5ywtNb1tF05URHvJFav8vS7qfNPt4x70GS+54yM05kZxsb2fgwhD480/zOjAZWIa9Z76r2L+u9GHrKF7uHDm+uWqc5bIUKj5yHzACKk4sdSw5sS14RWWAlAG/zoBZljrtbjuXzWycB8wcjkDd2o9+ql54DahwOyy59OHPYHHUbhIvyss9lPa3HAwQKFypHjUNXXQkQsiJsiugyhVdNielsHwrS9znb2DkMn+90fs4opmCarntu3bBq/1k5pNA067o9Mq32Er0bA25AAwZkkA2H9wUkhC8kFwEn/g9UAA7kZKBTxHlzLQqXogRonIN5wCJJcuJtib/mdcHtl0bnXCnGK7fEO/I0GZnqg6y8FyOKxfEzh3LIwCdv9kUueeMx8mV4qsM3Hem3pmPa/3MeSu7b6qz8XEde6EnMFEC0jl3ymd/z++QdVb1T3t8kPyvvjgrw5bECTJkLrVF2ndNjr79ra5JYzXFG3VjXX5iynJvTVe0sn9PYEuBoyWWhE61cAUrznKMjgAfJqzksJYFT7hV2siV2KkumxwMESijv+V2dvEHBMDIUUvZkCDUb5+rtmU3ibLz9nadsMuctot3L735mxZV3ixSP5yVQ1BSH31Fnnsvg57rezqMweM/a4DmemZUHpSjrWNwPgyCJqasZhO6YTk29TXIlP/IS2rAemqdJbmTre/3IwGRPDEiQs4H2NUnI0OTpyiqUrZGddwWCZCTLepcIZcxm8GSMMbDeHTjwnnljHWMlU79+ZpCQQZPxh1rMuR888epwju/zTqTZUOXQkHHpeeQLsJExg57nSv5eW7TPedqQdyTVzjy2Xa+v8nbc3i0nz3m+axh7oRVhpbz1ub9ru/wVbScLcgD+zIPWKrzW9EN5TimBepeAuaf4k+WUwqVyPegP9k7oV1KnVR5YV/UvhKU5lK1JTKx+9x4PECgsHoa4ICVCUVG+vEmC9P/sveefuTJXjrllrz7X7KbIKFFGniGiDLPH45p8ULDO0ymZ7ubh5bXPWQE7n1KkBPN6V890UMbaqKMlN0GAaPKc5VvvA7nZ9i2aH7FgRsS8KREDVooYsKI0nTa/Sqaps7EhM0ZKX/jkjWiMASGJXDRLERHyq7eaGN5HjXfJa/pduzEJ3i/Hfo0f3iaQyuDnseTdM6uSGYZszJvzyjOjkI1zBqu5vKzOMD7JMYMu99GOLPecZZ2BWAbVeQxnZsP37uvv2sz4CxUJEaA8/TT+c7Z3ZoPyfcwvz2qavNqUqWjzACovKCXQgBIw7jGNbIEQgjCbuSZJFJtgnlqaaQknhk1uivndHsawxwOETK9QpJSv7FiKT7EP8V0KiwLLVDUh8nB4SC+NHxcTxz8bM+csiD59+ychU76oHffIHlfObKUgMw3KoFN6vNbs8RiLOQEvMwQ5uS8n3uXkopzIlzNoKUv38n1nZOx2/jxZHLFoYcScFyIm/zNi2l0Rc8ZFjHhzxDqHRPQbIpW3U5thYgEQebVEeyZMpzawQtNnal1bgcNqgJDzLBj2psl5OXTletdQGsax8YwBEKvmYfgJfPiu+mMs5twP75kBQM7eNnYz8+BvqEqZ0BJHM/DVPnNKWwAL4zh/Zwy7LueJ1DrrvLP7prx/KYHukkAG5dg5Dq5VI1b2mOu5hDKnARhQBErlRsxae8q99yoGofpl5SPwyHiQFF11Ju6S8xYvjli8MGL+lFg08bpYNPnmWLzCNhGj900gQUdRelmBVv/MBicrvl6rAMkwFkcsnBOx8JWIOS9GzHw0YuYTETMfi5g7IaLvchHzpkUMGxsx9tSIASM7HSB01+Sul+dWM2M5qx2QyKxLBgj+5sjsF4OeDXtmCTIDkVeT1CPYqhe5l+0oJdAeCeScL2yBipgKKHFyJcJiB805bBxQoAiTpaDCCNm21WJO9ngGodUds3hRxIJXCgM244GIGQ9GzH46Yv7kiFG7R6x3SETf/q2+Xa8+EUB4+ZaIl/4SMXdixLzJBVAAvAatFTHynQVgmHZ3xJoHRKy+X8RyA3q1yBrq5RctiJg/NWK5QRHLDbFyvggRJQaoc1mghpJT2dhSAm2UQHZAJe5atWNXVz+FDrCJWDiA3kfugdUIueR7W1a/tLZZJUAgKYYLMBj35wIUDFg1ov+KEVP+FbFobsT6h0eM3Ln0cFs7qgCEl66KGH8Jojpi0bzEyMTi+RFrfTJiha0jHjkhYrmhEZucFjFwldbeuTyv2yWwOGL6/RHP/jJiyNiINT8eMeO+iEWzI4ZtFtF/pYi+/Uqg0O39VDag0SSAmcZwW5GgMqQVPkLMQIFkZQyBxN28asd5wgi1YAqWJqsSICycW3i60/4bMXTjiBW2ipjzfMQLv4+Y/UzE4HUiNjkjYtDqjTbeuq+9AMLC2RHT742YcHXE9HsKkLDSWyNW3zti3CURL98asc4XIlZ9Xwm8uq+n2v5kfTv+0oinf1ywBxufFjHp2oiX/xOx3PIRw94QsdJOEStsEdG3ZIXaLuDyit4mAeE+YQNF3Bh9oXBMgnoviiCpAJxLQqvfotiRZfvq+7R1VUJbZdvLAcLiiGn3RUy/L2LlHQrZvXR5xKQbIua9XHhCKPA1PxbRp29bZds7z8fGzH6+kOPkGyIWzipA1qjdIlZ+W8TU2yKe/F7E8M0jNjwmov+I3imnRn7rafdGPPz1gjUYc0wBqmc9XoAEcwnoHvWuiNU/GNFvaCO/adn2UgKdKgFJh+qdSJ5XH8TSY/UMrFBQ2M/SXqEDCcfKcNt+Wr6B3/MW4J3ZwF4OEIQXFhXU9+SbI54/N2LuSwVNKh9h4MiIMcdFDG25ZnVndlJD3DuxBrMiXr4t4oULImY/FzF4zYhV94hY+e2FTK1gePyMiFnPRGx0UsSILUv2oCE6t0kj5ZU88JWIOc8VoG/9IyL6r1DMJQmoU++ImDs+YrU9Igau1ohvWLa5lECnS8AKIiW3GXvhBRso2bfDJlrCCjl0ILlYLoKy3QCELaXtSdGZoYX88iVAQH2PuzRi/J8KmfB0+w4qjNxqexfsgWSs8li6BLAGrzxaUM8AQp9+RSIicCA0I7mT8ZDj8eLvIlZ6W8Tan4voN7iMVTfiuFo0J+LBo4skU3kk638pYtSuFZbNKiCge1ExDjp56Wojiq9scykBy+VPO+20xBxY4q44mmJGysc3TTZUr0f1V8mK3/nOd9JmfV1Vw6UXA4TFEQtmR0z6R8Tz50X0Xzli7QMjhm0RMemaiOd+E7HhcREjunbHxMaaOosj5k+LmHxTxPjLI+a9FDFkw4jV9ipo5+UGv2ogGAw5CVYviFEPkphYZrw3Vn9XWiuE8MhxFTAYEcO3jNjw2DLZtCE7s2x0V0tAfoFtngECv9tDQT5Bc5tRARK2/D7//PNTJV27Nap30FVH7wQI6HDMAXDw7K+LSn4S5lZ4UyF3fx93ccSGJxQ0eXk0kQD5LSpCBi9eVOQa8CRXeW9BK1sB0lzOBpCQjrwkrhRsQ0oAQHj4uIiptxf9LBnR6pTV962sYGjItyobXUqgSyQgnKD8vx1KbQNuC3qhg6ZH3rDtsMMOi4022iguvPDCtJqhK4/eCRAU8HnpiiKbXjhhvS8W4KDPckWBH3T58xdEjDm6qPBXHq9KALhaMK1I5JxwRVENcdgmEaM/EjFs04I1KI+eLYGF8woGQYhh+fWKAliDRkeMPTliSJmv07M7v3y7jkrAHiIqHd57771x8cUXp9+b5hNgFhRHssOnBMXvfve7sccee3RJ3kH1+/U+gDB/ehELZ9wGrlpZly9ZDjioHBTgyzdHrLhdmX9QPVoUyHnlwUJ+jEO/4UV9iFXeU9DL5UqPjuqOxrheMioGQbhILsn4yyJmPV2wR+scXM6ZxujFspXdJAGlzm0YZzmjZY2SE5sCBHkH9g+SnCiR8dBDD+2WzeV6F0BYMLOgxF/8U+HprPPZorhLmUjV8lQhuyk3RTz/u4gFUyOGvyli9H4RQ8eWFSZbll7POsMKn0dOLIqKbXJ6xNS7i8JJ2KONTi5Wp5RHKYFSAs1KQPEjG+9Z3vj5z38+7cRo/xKHFQuKJal3YDdGyx3VPLDfSXccvQQgSKabUSQjTrwuYuiGEescVNCjpde77HEnpGAvhRf/GDHlxoh+KxSx5pFvr6xxLxMNu2PiduszMUnP/iJi5uNFIq9VDZavKoi18jsixnytKJpUHqUESgm8TgLCB7fccktajWDLeiDg4IMPTiDh7rvvjnPOOSeFF/bbb78444wz0m6nXbGksbmu6vkAIRm4cREvnF9U77MqYa0Di/XZJThoARwsipj1VGEMXnmkYFtGf6hgDYRkSual96q/eZOKWiGD1y7ydqbcHPH4t4p9Gdb7clEoqTps13slVb55KYHXSUCi4rXXXptWMNimGTiw3HHixImJRbDPwlFHHZUKJXUXONDong0QgANV/Z75ebHEbtX3RKzxkcILLo1by8wBcPDU9yPmvhCxyp4Rq+9VlNctZVeqvKYSUFr7qe9GTPh7xNBNIzb+ZrE6qDxKCZQSaFYCmAS5Br/97W9TroHdVO00vM8++8Ruu+32mmJJ3SXCngsQcvGe534VMW9KsQfAyjuVBq41I23xgqJk7nPnF5Ul1zogYiUhhZI2bo34euc5iyNmPBrx6PEREoFtcDbKBmdVyb+9UzDlW5cSWKoE8pbOdmrEKmARVFHsjJ0Z29MNPRMgWIUw7Y5iwyVV/FbbJ2LFbcpkupZGyKKFEahjNfUnXFXUK1BPXzndcvliS9Irv5eb8MyPi8qkw+y1cWxZEKscFaUEGlgCPQ8gKIA08fpiq+FUHfEzxYqFMt9g6cNUASNL1+xoCRjMeqLY2VIyotoGpRfYwFO8i5uuhoiNnLAIGxwRMWqXMiTVxV1QPq6UQK0k0LMAggJIE66MeOnKYrfANfaPGDCqVFBLGy256BFgoBrirCcjBq0VMXKXiBFbFXUOynyDWs213nGfRfOLMuUvXFRs7z3m2MqeG73j9cu3LCXQkyTQcwAC5oD3a08AlLiiLf2U/C2X4TU7YGWgT7mlWLoozwAwWGn7iOFvjBiwcim3njTLu/JdgE6VFR8+JsLvG329GFPlPOzKXiifVUqgJhLoGQBBQuLkfxdFkCQirvb+Mma+rOEx/+WIcZdFTPlXsexzxFsihm5SJiHWZEqVNwlM3lPfi5h4bcFGrX9YWV2xHBalBBpQAo0PEICDGQ8VRZBW3DZild0jlhtYX12Rtr9dUKwXj77FNriO7vCqKO9nflqUxlUJ0R4UaTvrkmmpr0HTyK1ZHDH9oYjHTi4Sgzf5TsSg1Rr5hcq2lxLolRJobICQ6cxxF0UM37qo7mfzpe4wvEuN8y8qkv94UyrOMcaD1o5Yfv1i18N+wyrbIvet3AGYACR8stFeXPlb9UPyOcsVO+gBHSkRM++UCIi43sfvCZEUxW1URRy+RWWDqvzcXjn+G+eljYl6GtctSS7VRfhhxNS7IsaeFDFs45auKL8vJVBKoM4k0A6AUDFWaevebLgWVhk1dkiVvYqxYpT65t/z29fIW531XMT4PxXGbqUdKkayRveuVUeR07R7ii2kee/o/XkvRSyaG9Gnf1GStt/QiD4Diip0PpYbuo4Mvc4SBqJi8BOAqGydTNaWIAJGvLUg+34Fi+K+7r/csIgBIyL6rVTkF6hnYHvmBCrqTF61knuPuY9iXy8WdSn6D4/oP7LoW2On78BX+33JKp3q/gQWK8BwCVjsIsGkImXPFOB45bdHDChqzZdHKYFSAo0jgVcBQvZaUfav+SwovM4FL0fYB37B9Ih5L0fMn1z8fdGsCJnLyYjNK7xViotxop1U3rNrop883QQYsmEcVig6zwufyt7yyXBVDJ295pMyrFybvOG+hYEV51S1zW6C6fs6PZLBn180TrvnTYiY9UzE/EkRcyZEzJtcMfiZNUiooNIPQhNkWwlJJDmTlT/4sbAAHovnVs7P11Vkms513uKK3IdEDFq9YDCGbFhs04vFSEsZGZR+EWSuj1IopJqVqJZvZirqVOY9pVn6Wxnj584tttnOISpzABulKqhPAg1V8yb/bi4mkOhTAZKuS4DSNRUGKc038xIDp/+NhyqQnwFGWwClMWf8lWW5e8poLN+jl0mgAAgMPQpckZxkbOZVPNg+xc+FrxSZ7n3E9lGdvNaKgklKpmLAk81aXBhBP4GJ+dOK/y8BHTzjbFwqTEMCJxWAkEAC5YQ6d99BFcVG0fmdN7xiAUpsDmOtPgDCyCVlWImnd7XH1HTgKBpDoVPeTcFLet+EFiKcl8ADZdokL2EJU1D5rrD0r7IH6TbuMTfCKg4yzEpZH+pLVK8aB/OnRsybWOxLMXdc0TfuleRLZpW9FRiHJGcGZUgF2OnrvhWWSN8tV4RH+jNMQyP6j6gYmwq4SGOjAjCWMEm9bGbV8nXtpDn72Yg5z0XMnRixcGZRZwBoVyVU/6b+r7BPiV0yZqpYvmomIYOB3Ofa6m9LwIR+BxQwFBWmIjFdwwrg3xfQACIqgGQJiATeq4B9Yjiq7pFBaHrekn8qkiqZrFoOmfJepQRqIYEKQJgZMe2uYuIzvsnbr3gklJG9DOz9rqreiDcXiiMZAd59xfNMral4vlk5MXyUG2PkQ5FJ1mPc/e5viWqnVJargJE5EYtmV4weA+f/zqUEgRcGtXIPxjAZsyGFwZIINXi9gs7s7zOicn+Uuz0Eqjzp5C0DIxRhxVvKoCKBmQUFY0LZLof+r8T4swJsyZPCEIy/NGL0RyIGrVqLvurAPTLAwDZgMCZGzHys2I0vg4UEVCrvTc7OS0CxwlYk4AEc5pAHcJGNweDKeGBMjKGVC9C2/AYRQzcqZDd4dFmsqgM9WGDDisHXCYlJMr9eKQADIAgk+Juf6TO3+Huaf9MKoJ/mEUCZ5xj2rwLQzUt9bywksJmfl0OJlXyWFDLMOS5V4cMEBisAP+uIfkMKkDxw9YgBIwtnIs07YwfIwDYCJMJh5mLOp8kMRgUEJwFU2MMl+TbV7FZ2OipA43UApCkg6WhnlNeXEuj5Emg5B4GH8sgJEYPXiVjrEzUsPNRc4l3FgCcvufLJijApL0pPHB8zMSVi7oTCwPGueFYJcMwpei15RJXwRTLqwAwveFGhlJK+GVDlCQNFFW/JOwsDYD8oygSYBhceFEp+8JoFPc8ANgcUKFw1GSb+LWLD4yMGrlJ/IykZfAYA2KqssEj/X1j8PxmXWa+COoYn9QUvdU7E7OcKNmL+xIoXy7A4Rz8BF4uKAjmA2sBRERscEzFwZP3JoVFalGL6TxeAe8hGFdDaisYvCR1m5qnS7wloV8KJ1YA+AfeZFaAASOjPCsgwLwCNJd8DJJX7pDBYFSOWQcqS71+bc5vmTSbSUq4N9imzTvn3ivORQWp1GOQ1YROMBpBqji7/epABjGQnAgOZcn4qQCUh3pyrkSN3OSG0CavRklPQiu4oTykl0EgSaBkg8EAeP72goJVOhfbr4VhC01di8DwpIZK544tEwAQYphZggMFCsWePKDEZlZyJBTMqnleVx5ST/PpSNn1e9c6SdzWvABaj3h2x/lea94rlHKhJz4hudEIlH6MehFarNmQjUwlvJA+2EubA9iSANbkiO9Utr4pY57OVRNJy85529cKC2RFPfrsY12OOKkBqlxzV4a3KCpvXgIsKMMgJy2k5b2VOJoBpbMx6taUJlFSW/WKoMBqJBfHBavh/JacGUE3goQIm0rWAa2WsJdCac6aELqtX/lQLp8J8yNNIwEJYTHiswpTmZM801+kGTgHAMbTQdxwDQDeFWIYXTEgKy5VHKYGeLYGWAYLJ8vSPIl55LGLjbxQedz0fS4BDJYEv0Z7yIipxfm3PvzP2wASQkOO4FJXQxIDVi6xx3kWiZmdGTP5nxMu3FrvUKQCDVWnOq6DAHjmxCHXY1a6eEyg7pS+rjAqG59FTI5ZfO2K9Q8sCVu2VN4D70NHF2B37jYjBa7T3Tt1wXTOGu3qeLqESmrAbr1IMlTabx9gtIbAMPuTYYDgqIKM6PAaoY8hs3rbolYIRlGC9CEPib1knVLGZGYwAG6mNldBFTt7FQKg4KnRYMmLdMJbKR3alBFoGCCbRk98tkhQ3Or5A3j3uyFxnDnE0k6Gfdqr7RRGX5w2n3Q2Xklg1d1LEw8cWHvOaB/TupYTA0pPnFGwKgCk/oTzaLgHMwYNHFB4wgCBs0+uPpvOWQHJ4sko4eeVPAhfAxIxKAvXUShIvkDGzYDZSHkTfqiRQK7amFI5EBh9CIcAuR6EsMNbrR2FPFkArAMKCYjkhBT/25NcBhLyf9dSpU6NPnz4xbNiwGDRoUPRNiUw96JD38PgZRTGmke9adsLdjEciHj8tYo2PRqzy7h4khHa8CqWrBPZLV0SM7SzN1QAAIABJREFU/WbEkPXacZPykgTQHzi8oLoVHqpzoDV//vyYOXNm2Od+1qxZMXv27LTH/SqrrBIjRoyIAQMk/nbNQUfNmDEjnnjiiXjhhRdi3rx5sfLKK8c666wdo0aOjMGDBxelWtJRVZwsL09Oq4EqIZDp9xbbyK++T8SaHy0Tb7umC8undJMEWgYIFPyzv4qYdkfE2NNeQ6uZeC+99FL88Ic/jH/961/pFTbaaKPYddddY5dddokVVlghgYb2HgsWLIiFCxcmxeLTkXstrQ3eYYlqWFZb54yPePLsiLU/XcnMX8Z7Tb4p4tlfFjkKShn3kIOs9Id+AABb1R/kO+m6iKd/GjH2+Ihhm/duRqW9Y0FuzQNfLbYwHyt8tWwmZtGiRclAT548ORnnoUOHJvDuYy511jF37ty455574m9/+1vcdddd8fzzz8f06dPD3/v37x9rrrlmbLfddrHHHnvEZpttltrTmc4EHfK///0vfvCDH8Q///nPmDRpUpDNwIEDU1u23HLL2H333WPnnXdOwGXZY3pxxLT7ixLSK709Yr1Dyq3QO2sglfetCwm0AiAsjhh/WfHZ+PRiuVrlYCx+97vfxZe//OWYNk3GP93fJ1ZcccV43/veF9/85jdj9OjRrTMkVeJgiCiWSy65JB566KF0jx133DE23XTTWGmllZL30Srj1IKIeTkPP/xwPP7448mjeNOb3pQUabP3tt/DMz+LGHN0C3XlF0eMu7RIzBtzTMSQDV7TCs+cMmVK8mIoTM9bfvnlO1VJ1mKkafd//vOf+Mc//pHaCwhuvfXWscYaa7QA3hZHvHxXxBOnRazzhYiRO5cAoT0d0gYGgVFkDH/1q18lY82D12frrLNO7L333rHvvvumOVqLOVT9KgzvBRdcECeeeGLy1LWjGoDnc/v165fmG6Dw6U9/OhlnrGOt2+N5999/f3zhC1+I2267LQED4MhPbXMAJxyZD3zgA3HCCSfEWmuttey5iB185PiIlbaLWO9Lr+6r0p4+La8pJVDnEmgdQJj0z4hnfx6x8SnF8r4qgHDHHXfEt7/97eStUAYM+osvvhiUwFe/+tU47rjjEoXXlsME/uUvfxnHHHNMCF24F3RPwVEmH/nIRxJY8Pf2Htp64403pjY+9dRTMWTIkNh+++3j4IMPToqLh/GaY+rtxR73ViVIYlzaIalT1Ts16Dc87jWAyntdeuml8b3vfS+BBEqRgWVoKahNNtmkQ95dVsb5J4VbK6U7bty4OOCAA5YwRfp0gw02iA9/+MPxsY99LFZdddWlK9aZT0U8emKxkdbofUqvqz2DNgGEr1RCDCcvk0EArj/xiU+k8W3MGQN+OsyjPffcMxnDddddt2bA1P3Hjx8fRxxxRPz9739P4xgIGDlyZGIJgHpOxJNPPplYR4wC4wz8AyyM+Prrr1+z9mQRYzF++tOfxvDhw9MY1Sa6Cqvgu0cffTSFQcz3d7zjHfH1r389zf+lsiyvPBrxyHERI7aNWP/LJUBoz1gur2kYCbQOIEy9M+KJb1U2XXlDejkK4bHHHot///vfybAydBTRrbfeGieddFLccsstSQH9/ve/j7e85S1tEgh0f/XVV8epp56aPBEUJZo0hxvQgieffHICC7zw9hyM6BVXXBFf+tKXgvHjITs23njjBGoY7FeBzeKIidcV+ylsdNKylzgtSeocH7Hhsa9R5JQiRXjxxRcnBel9yJGiJKOzzz67zbLK785L1B/PPfdc8hiBJ54RT3/11VfvEJjyDEr0t7/9bfzhD39IjEtmQciIwTnjjDNi7bXXbr4rLD99+LiI5TeMWP+QojhVebRNAmpOyEEYsEolxLD0vQ3Mlx/96Edxww03JBDK2DHe2LIMuDEJZ555ZgLdHT2MYZ66Oen+QCPwuN566yWmgvE1xufMmZPyAIyhyy+/PIGFzKQxzqecckpstdVWHQLJ1e9izPpg6Yo8g1fzougYQOXCCy+Mn/3sZ/HMM88kBwdYNw+XChJmPFxhEHaohBja76R0VO4tXe99OsNZaOm55fc9RwItAwTvaqOYR78RMea4iBW2SHnCkLfQAsVz/vnnp3gigMDoMby8TQqB0jj66KNb7ckynMCBY/PNN0+G9MEHH4zrrrsurrnmmnj66aeTUd1www3jvPPOi2222aZV9zZRcuIUbyIrrDvvvDNuvvnmFM64++6703N5GtiLz33uc0nBpszo586LmPNisQZ9ycY4zQwEWfuPn1JVN2LYkpPIxjMYciwLtgUD4/20b5999klGuHhmy0e1ArjsssvisMMOSzHn7DUCT294wxuSVyQvpL2Mi+cAHWQGqAEhvESKFfviOeR11FFHNc8WWYL22DeLqpRjju2hK2Fa7q8OnWHDpgcPjxi4WgEQlrLcOBsEY90nG0VzUdjBWAAUGG0sgj7raE4CsHjIIYfEn//853j3u9+dPPZlhRaBgmeffTaBGLrDmNVOc9m1dElH8xLoDYZeWEyoky5p7iCj66+/PsnhvvvuS7pkiy22SAymkOPrGLjpDxQ5CBKV1/5U3bJhdAAg7530L0dh7Nix7dYBHRq75cUNK4HWAQTxd9UUN/haxIitY8HChUnRUAjf+ta3UpJPdVYyinOvvfZKxhB9CKW31jgxnq5lJMUz0e7ZuDNGJr37MVS8IAmSDPqyDtdjIihExu30009PyUmUkO/yZKJIhAB4HdgPnj6Ppo+wgaV6ysWmzOVlJCha7WC9+pAxEet+YQnbQCmS17nnnpuYjy9+8Yvp+dgLjMVFF12UKFaGl+fV0qHdORlMwheFS8lR1rwjChKVCpSIq55zzjnx/ve/v9X9kJ/vObfffntK8iIzDIi+8QzgCkgEcoR8/vjHPyZA8roDq2KJqL0zhF3URCiPtklg9vMRD341YuDoiLHCXK+vRwIEGEeM2gc/+MHkOVcfxoLkwc9+9rNp3DGEvHmGo72H8YGpEPYbNWpUer4525KBd505jEkw71D+rgFkGWesV0cO7/ee97wnzQfzDjOwtINc5CgAORkkSLL+9a9/nYDOq8fiiOn/i3js1IhV94pY40N1s4oh6zEyBOblhp111lnJEXEI9Zi7GNPXhU87IuhOvDa/Ez1mrBjXWNFa5aB1YtN7zK1bBxDU7EcRr3dYxIpviQkTJ6YsZAaNx9t0yZIBevjhh8cvfvGLZFQktunYlg4D4qabbkoAAehg/MVMq42VLGT3BhLckxcLhCwr1s44AzJyJRhnxhId3vQa1Cxj/fOf/zwZwOOPPz55xgP6zo949KSIUbtV1j4v401QwQ8eGbHKrkUxlb79EgjBEghbACroSxPYki/ghBf1+c9/PtGxV155ZbzxjW9skRUhh0996lNJXoz3hz70oZg4cWKaSMDByy+/nIwBZYtK1Q9kJoTSlgNYYlAocs9DS+fQi/f6yU9+EoceemgaA57FULzusJLBZmDPnxux/hERI7ZsSxPSuZktqWVeRZsb0Z0XWGZsFcPgtSr1SF6fB8Nj5MEbR8Ct+dn0MDYweuaWPkPr67/2sgiMK5bQ3Pra176W5kxrnQFtM/4ZZ8mKmdkQosSGtdeQGSvuZa4D20C/ubasI7fjoIMOSuESz5bkuf/++792Ls7AIHwzYvS+EavtWdnxsjsHRiFDeoPDIPcEIDrttNNSP+RQqXwU4wKIzzqVjnOt81oCdEt7wzwv23v9skCb8fyXv/wl2Q+6zXjdYYcd0jhrySl03xzCNbZr3b7u7fGue3rrAMKspyIeOiZi3UNi4Yjt469//WuawBL8INKmhtbAg759ZykRCq81sU6DjWI78MADUya0+zdVXM5BlfKQGK9jjz025TwsCyCgMPfbb78U8+Qx8SaWNmDuvffexEw4l9EFFob3r9RAWPeLEcNaMLApRvn1iLU/V5RjroRdvv/97yewgTlgaHlt3s37XHXVVSlui6oHHHhRLSUXkqnkQDQoIMbjqr7GfXmUgBEjwJsERAC7thxYIErG9RidpuBFX2AmMqXr/Zo9Uh7LWRHrfC5i5Dva0oQkIyEtdPG2226bZNfrJrzNvxRKkiS84dFFyd8mB0AoTLXTTjul8JsVP00PspQnJG8EyPRTv0rSbc+hvoC5hWViiK02amnsNn0Omt+8x0aZq8KHQmaYiLbeK4NJY8VYJwvvZxVHSweDIoHYPOVUmF9A72uAivmNQVjjwxGr7l4XhZLITzjUXKS76BD9zNkBvAAABtZ52ETfYWqFgjksVpyRU1uAHVma8xwU44isjaH29FfTfgFasFJYaiBhtdVWS/rN2MAM0eHGmffg1GFPOS1sDB3q79oENAGKb33rW+Nd73rX60K3zmOryIAuxhY1B5Sd1/S9Mrth/GM48hLiWrx/tTwye475lt8D9Le8HLelkd7671sHEGY+UQCE9Q6JmYO2ii9/+dCkEEw8NGVzHQz5mWCyhhmzMWPGtNgqwgAseDQmKkPanMDzRGAAhQucv6yOeeCBBxLdKA6HAkW3Le0ADAx2Hv9HP/rR+MlPfhzD5j8Q8dJlERscXex2uaxjyi0RT34nYszXixoIffqk7O2Pf/zjSTGblABKdXvRq+985zvTQMMG8AJa8ugYg09+8pOprcBHcytFyDMbDcqP1/iZz3ymxX7IJ5g82BYUMMMvRNOULaKM9BPlAqg0yyC4oaWOT307Yq3PtszCNGmhdkhY1X5Gw9hoNj7c6jdrwBNlzz/4tYjhmxV5MDYcanIAg4wChoByXZoHPmHChNhtt93iv//9b5KjMdKSh700ieWQoPF17bXXJgPUnoOix6JJaqbk5ScYq+1RuNmJAGyBbWCptXk9vHCMJMNEGZuvxtySQz9gENbYv1IErf11Xtojp+auAWY4VcKTgBAgYK7SvwxXPhheIQfywDIADeYtw/qb3/xmiROXjVKuP7O0djJa9BojjElmhNvTX03vzxnA5BinxgA2mVHUdraE48aYCzlLjv7/9u491PLrqgP4mvdkJsnkNZPJk2Sax6SkKpYoah5gFWqE4gMsalV8QC34SjWWGqJ2mlYbgqaKKZRW/EOttaRgBBFBEQWFgJpqMZkk00wak0zeM7lzJ5nHnZHP3r997m/OnHN+v3PuuY/c+R24zJ17fo+91157re/6rrX3Bib0m70GlHzMA0CCj5D6Eqx6JjtJV/VdOonOup+fkpLpT5HSS7Vi9LoEYeSj9o4vAUKK45bixdSOKwPt8cz+vX7YPW0kW/3mR8jD/F6qjcbaAYQ3/yfiyU+kPQBem7s20W6UEl1F+IMAApbBgHHGBqBtXp0wOCODZbD7hS19wWFRDCsnOCgIcdigELy2aLNJ5LnDDKdrDbjr5C6xE/fe87HY+NKX8tas1j07qGnU58DfRDz/FxG7P9PbNZDRwXhoryiLMtY/KrvvuOOOhJBRtZZaNgEEAEa0gGpTYDloHLzDUq6Si0XNkV1bBTYhtRsaBwb7C0LpACZJYZnUBX24+eabB0vnjUfzlt3qMi6+dSzbyLCJKE1ARkGUDCS0oRm9yLiKPFSqqy3hDJvkO04Dh03wcZ7ReK3iuMc/FrHt2yOu+80zAAJjIhVEF6SSRIXDWBZAFGNF181LRnJQOqKxTRGpwJdDdb/ntUklDnquMdJuES+9wh5KZ00yTp5lFRXHIp3HUdQd5ah+kc1dd92V0guM8EMPPZQAe0+WCSB8Om+hvv17VwSDwIkB5gq5yUt7gcV6DYo5xNFhZgUqaoYUkrOFxl9qqKxCEhUD+9hCzMIwPWIXvEtRufoGwcSkq8rqIAY4lLbi5NnCYq+Na1nJJoVKR9gFLDUnDRgZL2ACcHE9W6vfnLu5oaZMsTs/w74BFuQH7PibQK183A84sZnAprQNnfAuTtrzFLxjUsgMKLfMtzDDhXkobK6/1+snzFk2CQvjO+8oeqovmGXPFLTqk3YCqw8//PDwFWNtJu0Y17QACDa6eTTTwzfuiQOzFyTHpMHQ/iCDoHOoebUCDDL0wzk2fQgSsqV0aD6DUDcQvqcQGAO0kAha0eIoo0ShDLDBlS8/bbL3NYhhougKCQ08h/e+274l1qQtlt8XsePO5k1+nv18hJ0U331/OhraxGRsODfKDtn3AxTRiokIlDzwwAMJ6TYZRkqK2oXeTVATfpDjR7/JS0PlgI9xaXp2carGjTNmaE08MqlPZLtnGgPvgNDJeTBVrQbhn/NeGnaXvPA7mlThjO/plAnMKJhY0ibASZtUQ9EBDAQAs2fPnpGgcpzGaYvIzTjccsstqQK/7CDaFoi1et/M/+bi1wtt0POr+Vjj2odjAwSxZQzgqEhGnQqHAjgDCK63LHHcT0mPmVP6zmBOmqrwLNG66FD7pBvM7Ta62t9uzyo1CCJN/Ty92HB4T81XQEVwwvAD1dirHv0+8/WIpzFhPx9xyW0rAiDs3bs3AUKBhuXSWNg660EenAy7KWUoCtU/zpOdNf4coQCgOEVAQnDAHhWnTx6+Z7/KijUpGHOf/rBD7P1CPuaq4A+Tahw47EH0PlAjAMVgY5H1mf5hUzl9fRRMai99An4AWIGM/vqOzeSQ9dVyff4MgCgfNgeQLmw428neYGDYc6lOIMpzPQewUSPhwyYCJthiaWt90QZ6rRaE3eDoBYRsM7vhmhJIk6WiWX7OOOiPfmIUMBeWBS/Fpx1AePVfIp77QsSNn4yXZs5JDYaEIPNBkWuhniAjqEj02YbiK8hfTpvCE3gxOCauSU+xIWATgFKnVQYjVhWUvQe0VfSuOnnQ9Z4v0qcQJhoKFlDYfs4bEU/fH/Guj0ac9+7RY2JbatsxWw55g6Vo25IiAEqYDs/jbPvfbzWA95Wd6Bj6JudiIgEbImmOD2Ie5CxRYXfeeWfqG6egDW1QvrEg/7vvvjtFcmXVRQEPFNdYmGzSR+objMVAh00udpc88NW8u+T5Q1iGBo0HoAADhanlnW2WxOmL6MpkZAjUMTBAk+a4681E+0mxoOlFbChKYwxYNe7KN84Mx+I9cU/ERd8Tcc0vnwEQRDB02zJgfdWOYTokaqETDBjmCihntMb9lBQW3WMoza/+lRNtnuk5DDZdw0bRT+ODEWmaB8OeLzqUXjA++tdkJ8pztIVOs3HaxPnNO8kqWNr/UMS1v5RWdK2Ew5oETZwludFxgUC9nqAAZLIFqslVPwUunI6x55DUfrBX5ruAADOEcfUsbIFno+gBDfd4BkBK7zhTAA9js5CPZwpMzClBkwgaO1Wn372LUwcGgDdt8a+6BODC9xgIYMiKOqkKbaQH/ElZBs5W6Re7yLZw2AXguAYLRa7u9y6BMd/GyXs2G4T1tYSWTLTXGIj06TKbADBY5WXOmRv0mo9RmIvVJm++zg8wRL7APtmTg7mFSSmg3vsAIYB8KT7NAEEFum2DX/hKxE2fjtdmN6UOmngE2p9zNDgQFiFCmqJ2kW7biY5CZmAhMkgJojJYBEy5KbKiFYrguU2FNQCC3CaAACECH4PaYuA5QbSOCJBCiGbWzTwWsf9zeZOoc64cPSYOdbENqyNhr8sn73k/Kg8VayVAf+7c5MVUQIjSMa4pe0o0KQBZUDKFZkDCIOPMUAIcKrNFehB/m6iMzNGOaEOggqx9yliYkBCvcTIW+jg0L5aWOX4+4pDdJe9d0IFNJjwKmBHXL+2jD036pd3GGIujotuEdG9/cWeTzPu/N8FFEHRLTt87tIVBIiMRSxtA1vjeBBA+ngFCOjb7dAaBgeMQvV90hSkZJJPi1M3hsqKBAWqaR8Pax4gyZiJ0BnFQYWRT3xhEc0A0yxhz5ubrpGkP7wOYGHf1Shy8+dVG7wuTQT6MMkOPGUvyAXStxnFYkzqQ82q1CU2dXMTvpUI5daDP/O5PvVnFxLmJrM1ZwEcKAdDGRHJCAAF7rf90WYTM6RXGjg0w74wzQFJy9aJf0Sz2lT0atZy0rQiMnbmjHZwwG8cnlNQg31N2Ci3L6V1nnPkLffAM81Jwpt6Abfd9v54D1HyCfnlfAcrsDL+BHeQP6KPgAgjCCAAX3uVegAuDYr6RLflI8QhofbwT+FKvA/gAWqV43NyTlgAM3K/tbLW5zLaay9Ipri9AELPWNmXWVubDrmsHEF56JOLA30bc9Kk4+NamVPzCEAEI9eJDncMaGAzI0uBBqeNEJ9AX2loVsgiW0vudUC134QRNCMrbZhkUAw5NQsoibvfWlaRELyJTgvcxYUTmW1U+v/6v2SDsvq/xgJywBwIjbsfAaz8SsXZTMsIQvToMVFW9QNG7TV795fAKym0bhQFNwIFCHAa2H1h4Pqdlcpkk+k4WTc60AAEGgRFhdBhbYEY6hCE3UTg+QBCaH7md9onZfLqlDZMwKxuH7wLYpND6pJ7AWGGStBFL1SbV4F7FtZgPtKwCTzJBU7a5f1jbgA/AWLtU49NbBgaFSd7GaCHPT++1vE6h8AW3ROz6aMT601cd0AFRL4cIlJujgxyi68oSZMCKUSy0aJPsB32PutY/BpkxYwjbfowHY09ewJroCEjWfmPaxqEPe5d5z2aY12wItrGNUaXjnCXH6MPx0vHUFsdFv/jlCIyqzao21/dIaNvr6V6nvcCuaNNcBdTrcqObbAsnJnUJfJk7qGp2RgTN+UhNmMNAmfnNnhgHzKagpWxJz0ljhC0h9Wz6Yz5xkJxp21TOKCkUB4/SB2jYOayf9wgKyuobxd2ctMhbm8tuvoXZ4HgFA+aePkof99s+NoSf8sPm8ykAK4BCJwEfRZzsHQdPLuY4psT3gHgJjIADY2AOYiKkPdgFgabdhrEh0r36VTYW4/TrrDaZehd7K5jkG7QLq42h8M5x5thCta0dQHjxqxGv/kM6rvfVmUgdNplRNgXlG5RCOzMURUCMTxuHVDpC4Skdwy99IW9DmTk40QnwQbhtIxXtQslw+mUvAANe2kQZRN8UCJqG3B588MG04iFFDC8+HGGJnjMY+ozyGcI/fijTwNveG3HlhyLWbkgUEuWF2A2udpQiFgpVCnIomYlLIdrKC/hgANFWJgNnVzcOZKlfgBGQJodvgrX5kJvniqDQxxRbukLdAafgeRyNorJRq0LSu469njfacoaFw64GVOC3aVO5RtuMG2Tt3eOc9VG28SY3FLsIn9ym4sSrpV8iaTUvIg3P5ZzaLLMbKYPDe6tVDDdXMpyvTi+AznjJmaMfgbr+PS/IzfgBDwAMJ8yITVpYmHDLzEyK8BjiUhzZRn/L5mScOKPrOeZ60alJaxnqOsKBYL7Ma4GKuT0KdJAPJyByBOjZH227/fbb85y0S+ozf5RTiGk3yxFnsoyj0Au4VqAmgueIBFACtrr8yZmdZjfZPXZULZExc6/+SYex46Jy3wEDZbl5sZ/GBzNh7nsWuwCUCA44r7Ir56RM1CARsG/Gg+3kE+iEcQRCMCLGEohB8Rfwh/Xh9LEF6gDYCDJg+9iw+qewRUCVeVM2mgMQ2WV9AWDZOj5CQCHI47xL8Ct1rp2Kwc1zfpF/0k4pN7qjjXQRSLPSw/MxWgAVMCDNV/d//Ccfq936yHbwC+QO1C842BhD39oBhBe+lFHzTffFywdPJoUiCAwCI0TQUgMcIQGWJSOum0RhDIrBotgGnNJCvoRkko9jPLQNjaQtHAIUygh5hr9THCkReyqIwCHA3j4JhRr3r5zj2oZ91486c0Ah2W0RV9lxMW+SZBKitk1kiqM/pVKYgUQPAw6Uehy2xThbzSBypDQUtLQdOECJUdZyDeTa9vnFWGo3BgeSZnhMCLl7DI73tnLObz+fo99zb4rY9WsR68Y7vGsMfW68VL9MPGPP6OgXY6ngqI1ja3qB5/vBtBRWR4S3kGg4vfPI/rxR0tZdeTfKDWduPKZPDIt6EyCA8VbhXXYMNUdFUSJKALvkmRfSb3om2sLQMbTDltzW5UbmdFP75GLJC3iX0gJgtXchbSrv8h42CXDiRPQXeBpU9MbIM+IKWFHl+iV1Yr72GL0TR/IeCMCCMVhGPS59xFop5jYnOfb+dBbZcpS+kw7AlrGBChI5NUASOGATOaICKNhf6R5jIdgDmoBxgRswYr6wKxgpzpLtAiCmMW76Rv70VWoW4DYm+saGSW8YG33DbgA+2g2oGGNOV+obAMYAsbcAT/8SRvfzV4CROgTOXK0Y3QRCML90h61WY4WJlVID+hXp09dSqwB4m1MCMr7K9WoPyJpuA1ZqQDAPnkPeZC8oBBzIGZA1JgCFVDc5S4GSrb4s1omno2xaO4Dw3J9GyIHe+Lsx8/a6hGQMDOfGuDJINitSHEVwOk8h26QABjXOwHHY0hQQLwWmBJMeiyxqpAhqGDxPpGLSm1z+72PgUDkmUM+YqynY/yf5BL2rfqZ5W9WjL+dK80u+L+KKH+ud9CZao4CYEHKivGg68mLE0HgU0d/HnWCUiJIx0MAatO05KrflTjkqyi6HCKCMgz4pPxmRnbwYmSkEYlxEV62dHnr8iXsjdrw/4qqfawZaTV54Ct/TsbI8EYgdV+5NTSjP99zWchr10Nlv1DZKuidiw5kbJRkvUYnoBA2LojQX0cdqUaQ76BxDi3HyU1+Z0tSnYXOVcZSzN88YWPTzsPoHER0QDkhwQIweB4PRMcenIquqocZAKok8RJVoajKgv4Ct7zk4RplBJzv67iNYYKjd0+vLsTfySY52s9z164khXO6PMRdE0eFhWxCXVA5bI9Iuh2e5FzBybx1Y+JugAAMmpcA2Aprmi3Hj6ARxnBe7JoiY1vHhJb2AjRK1c6zayaYJougz5lUUr33GCNtrfLFhxdZyzBhtjtUYGt/+5eXexSYD1diUAkwBBcASG+M7tQRqEPxdv/kR4N/HM+gwu4g1lFb0HHaZvIyJ/5c0ZNm1kn3WH/5SCszfAQrv0j/21RwWyAISQMk050ZbvW0GCCfnIp59KOLoK2n99YnYnIqoQCNcAAAPEklEQVQ/5LMYF6iMI5cngiABA5FE2xTAqIaWaMwEXagBN4kMMurIIJgsBgVlA9Ghys+oiD8+E7H/sxFbrou4nMOfPw1uYLvf2h/xxG9HXPbBiEvf3zvIheHEUjDIlIbCoMjLOfQigEmP3iUj1D+aXFEnBSV7tQeUGdKX+2KEW0X7fR3zfO0vB/8UhW+rYOk6R1+n3ed+IuKyH22W41gPP0suLhslKYxLB16dnmIoUqDnWDGAEz3LIZiXADfnxzlg4lDCk26O1C9xkY/ncfxSit4NrBbmgnEs6SnAGKDQHoCAIRfBtSk0nWSkzTd1UeoIgAV9Nke8m05zDP4OrNBz8kIDi6Cl1nqOU7H27JN5y/WdPxRxGXuw/JskTSKTNvcYs2Kr6oyOcRN0sC3GjOMuBXZtntt0DXAiCpeO9X75eWkiIIDDFqQYN+ABqOSD6DQdLBsiCVpdxwlj0ow9ZmgQmw0gAs1YCn22p44fgMiHrmIyAA3O3DVAC6cNXJCBwAtAEHi2CcAKYBPAYTG13UcArJ/AADCCLQFs1DkIAOllm+c3yXic71sAhGN56Z4JUtHDlKQcMOR3HdMJS4KkABacbx2nB2NcywAABwwGY4kyE10BBtp8Bgg58s2IZz4bsfNHIi767maDcPipiKf2RFz9CxEX3dZzhEUhGFDROCOuqIcioFQh24UAoBIpQb0KZEwyE0dhDLZHjmuSVM8Yoh1+Kb159Z+yDl3zkWoviQagNZUXr7KH0MXHfyNi46W50HPT8N1AGVA0qegKRcuYMyz0HTULqPp9ITpXly79K/tsiMZFnCXnDYhbEiaoUCDKGHLCdBNdzRC2WQK9kNEkD3ld0a8lxeTB0Gs3GZgbImA2TJ6ZjM5Y3eLAtgOPRLzw1xHXfzzivPc024OFNPosvZdt5DilCTh6Vf+D7CPAiXqnU+XUWk6ccxfEABdABsYW4wEoDPvQg7LHQz+NPyhI9Td6LcgDTvqPEm87dAry1e5gZz1TsI31U2yJLZAyEbhiR/gpoARIWkqQ0AwQ0Oz77o9Yvy3iml9Mlfk+JhljIO8pBQCVMzpL2fi2A9F/XWtmQlrFKYR2/2s6g8FLjnwj4qnPZEd4/reeYUAYKkpBeRnJaeaU9AklBSCUw5kYPEBhWo5gInkDCM//VcTzfx5x/W9FXNgCaE30olV+E3rbChmFcrv3ZJp7xKek6dTdiIAYMtXPgOliOOSSi0U3YxSL4aTrKFPg3HsZQeyj+pWl3FNe+6Q30LiK69QbcAqcjzaphFenIPIcSOWemMmbxR1/Y8ErcVa5pi6oeyXFQGf4k2GBTXHS5ZRHVHx9rwR/p4uAhqAMcCgfugAolu2TF9TgBd5cfJHH9PtO7aSnaiGACAwC5gTbvFQ2vQVAmM1bi55zdZU/ns+7tXa0CxTist1+6L8yQLDFcps1z1ISL34lpyMWWKk/aZ/LmKwYoCbysrGM9eO7fy/ifJtNrV5qdtJxa7zv5LGIF74cwVFd8aGBNQijIiTfLbZRAQY4YPUu/gVUGTnUL7qegcMYqIlZLkbL/ADUORBtE236aaxDcViWMxgwB9d8uHnL9cYB7S5YTAmoRQBCjbNUQ32HR+DASjWbQLXdrn0x2zrq2XQUwLFqRLEp0CPdsFQsfTNAELk8+TsRF3xndf55QyX/cklyMd576Gt5kyTMybZva/eGubci1m7u6MceXD+eAcLBRyNuvG9BmyS1G4BVfBXdwsj0bbO80nosryunjwYGGuRp/UyTMVvyPts+/dnPRVz94YhLLEvrQO6Sj8EYL5RGVsioJkYuvyyDtPpOKlb6AlhdMYHUiL4BOerIrKiRmitLPccQx8SXNgMERz0/eV/E1T9b0cNnUf748BP5gKHLfzzikts7ozCJmnFob34tYvapiB0/uOKd2yRd7O5Z5RKwH4o02St/F3EDkLuw8wZWubSWvXtYIlS8ZYhqENTGST8Arlbe+b5/w7xlb/SIBmivYlr1RFKElk0uFQPXDBAsUdv3QMSuuyPOt7XoWYKcObZD/5mjX+DIFrdnS9+nPVsY2DhZreo4S/Rn2jLsnrd8Ejh1ImLfH0bM7o246fcjNg4vEF2+RnZv7pGWJ0+mAlgrAKzsktpSn2V1jfoYW8P3byi10qW3XOn8dgDh6Qci3nW2AYSTEQccMPRIxPX3RJx7w2gd4gSlY46/FnHstYjNl0Vs3JGLOtcW1uWd4BxPRZxKCevT+wswpY9/XVP+v6a2bLF2je/VH/TuWZv3P2haKrrSZ+pytI8s5w4rY8qb83QyHBVvzX9X1LHNmPXUvfySJkG+01bhjrs/qUD0voj1g5eYtnlNd83iS0BBrL0vrFyxX49iRODA3gX2wbBK5Z2QWlh8STW/oRkgvPnfeYmaU/iSk3wnOLnmjjdeweF/8wsRb/x7xA2fjNjSdFDTsXz9kX15a2Fi2nxVxJZrI7ZcnTdbWntO3gEvGfmNOaLuGXuO1k2Vg06OOO3EMS/y4pST453LW0Gn3/3r3ipKt4HLGj/rat0sTt21xXmfzADGMxS/HXs14uhL+R7nJazbmq+dezN/7yyFk29FzB3JPzq57tyI9TbtORWhkM6z/Hvy7YgTr0fYR8N3Gy6MuPQDudh1Fa8fb9SrSS6wg99zX8x6tf3786mi5J705yyZj2UunAZSK/2nbycORRw/GHHqeNa5U5Uuiv57YNb1dfC7Zl5fgddNl2Z2wJzAFpz7njxfzem9n8j1M/agWLd5klHs7lkiCVidYoMjq+xs3GUXRWceWA1gS+WBS9qXqG3vtNe0AAhfzymGdHrZ7gkBQg2NFwmlSdsW4g8xgotpHG2vvO8PsqHY/anMCIz6cNZv24VtTTZWTi60uQ2nq7gsKkO1dmM+ic+/iV0AFDbk34EFBo6TTbQ8HODeKkrXpoQD3p53vMkQVg1zD7ZizaYMQhIQWVcZSI7+rey8eyzAiQxaAItkYGciGFRyTcClYj78rQdWNKD6u+u8k0Fe6/d0Ub53jdPvqt/9GdiwG2XaH+IscmrTsAjG7bk/i3j1H7N8N+2M2Hxl3rr63N0Rm7bP608ChUW+ZRz9vwKfqT3V923HoedgGzoz7Hmn3V+B06TjBdxWvydwSf8BTI7+aIRl1tgTB6HNzWRgmgDosYi52XngesL3h+fBQJo/NRtTdPW0LhSZaBOwW+bm5gjP2/EDEVf+VMTLfx/xf38ZsfMDEZd/MGJtHXhPY4C7Z0xTAor6rGCwjbdtjwEFe8HYF8RGWYu9mmeafVnuZzUDhEOPRTzzYKbZt15XMz4ixuPZ6aTI8mgVyZqUIllOYkP+3sRX2W8CJodyPNPwR1/IDilN5mLEzGsOiXPZUDk6ey9wSqeyIeRgk1NFWYuiiqN1DaNYUdnp38qJ9bzouso51+nuAQ5LtObgJU72xj3jLVtMBlFUTjYHI469ktMPwIKDXhgfEblo3AlxQEFiDvyuq/rkZ0NlRKu+p/6LXio5pD0pKtm5NjEJDGsxoIDE0fys+r7x2Assg2sZYN9hOET5my/lzTNgQK16JoZAJJXGELgBZirZpvGfyeOTtp417qjw2hilMdmQmZQVsH/9ck+6sd9Pn+jMm49FvP5vEbP7Io6/knXHuGzYXjFTFTA0vmU+WW67aUelS1VUbWw2bs9jYUzTuK2pnDMdpD/VHEx6eTLrCX1NumqMK/1M87yag+n32jxOHa3me3LmHD29OljNgdmIU0crfa30tqe/1bwwJxJoqJiohG/KfDWXMWXrM6Ni++nSnwRwC0NX6WRJeSWbUIFZ/QbS9Rl7pn0JaG+MuPjWiMt/MsIOqWqxLvyuiM07xx6+7oallQCA4OwduyPaRMnGXTZfsuVyl1oYbyyaAcJBhXp/nFMMW3bNR7U2BZJ+QL8lcFBR3IxHcnwMCYdV0Xoh+jURGR5ObX2uaDcR5xguBkL0WqPYXcswib4ThT03bxzScyqKlYFIDk8z/K36v6h13ab8jHQ9Y7Al4pwrIrbemClFJzSKyJLTK9HxqQin5+29N+KiWyOu/ZXp5H0TcKho0QKMUiTFGFb/FmdaDG894kugqYpe0r+DahtK+mAuYq6KxlxbnHdhI5KRrEBJ+h6TYQlrPQdbVyZOvhZ91r8qEWLbiHQ8He2uLhIo48WJmXd2qDz8eKbWS3on6VeVluo5QQ6ySlelIQTmAANA0bj7qYB5csb0sWK80t/rqayqMafpQgXKk2716UgpUO3pe4nqXVsceMV01OdumsNVMJCc/7ac9rJhWwKpmzNwTT9b8r/YsF7apZ8lqTMopY21OhoyS4zFkQogVMFJAuQ1MNHp+Iqfj3Y5tH298xycu2HfAJthdczB+EPXAiD8R04xcKjpgJiKORBtyifLy224uLZxSBVxlDx0inLR7qLM6juRv0IfDrwAi2JIspefz5ObtIkWr6jsBCTkt7EWfq8iWBFvyo3PVqyGnPlMRbGXYjmPQU1WVGQxSAyPo1u1h6Hxd1E/9mTnD0dc9dPdxijj61Z3x2JKIDk0uXdsFN2fnWf0UprKy+dyRHzspQxAU13K2nwPUIElK/eltBJWrgIM2L4CwFNxJIes7sHfAYYKRNjZsUT3PZBSTx1ir1D31dwyzzh5Z0ms3ZqBa2EBCrBP7QQQsFT1n0LtFyAyBLAupty7Z694Caj4d0KuvThshDStg6RWfMcXoYHNAEFe3V4IGy+snPn6TEWb4GkiL1M++Yy8aAU+ivEq6Y9+oaHEHT+MNmQgjx7I/0+pkIqaL1E0cLPtvXnrZCCi+3QSWOkSGFgvUNWzlLRDYqtKjp+DrxjAknoqKbp6rUmpK6mzGQmFFIawzL/+uqKq+Lb/mcm3L5PtWOlj2LWvk8AKkUAzQFghDZ16M+p0P6ahVwylEroyqBsvzukHbEdnzKY+BN0DOwl0Eugk0Elg5Urg7AUIw8akHoENy7mv3PHsWtZJoJNAJ4FOAp0EpiKBDiBMRYzdQzoJdBLoJNBJoJPA6pJABxBW13h2vekk0Emgk0AngU4CU5FABxCmIsbuIZ0EOgl0Eugk0ElgdUmgAwirazy73nQS6CTQSaCTQCeBqUigAwhTEWP3kE4CnQQ6CXQS6CSwuiTQAYTVNZ5dbzoJdBLoJNBJoJPAVCTw/8KJ6PhaEVR6AAAAAElFTkSuQmCC;" vertex="1" parent="1">
          <mxGeometry x="160" y="380" width="520" height="167" as="geometry" />
        </mxCell>
        <mxCell id="UGh84uwNY6xkyhURXS99-5" value="" style="rounded=0;whiteSpace=wrap;html=1;fillColor=#f5f5f5;fontColor=#333333;strokeColor=#666666;" vertex="1" parent="1">
          <mxGeometry x="230" y="690" width="60" height="30" as="geometry" />
        </mxCell>
        <mxCell id="UGh84uwNY6xkyhURXS99-7" value="" style="rounded=0;whiteSpace=wrap;html=1;fillColor=#f5f5f5;fontColor=#333333;strokeColor=#666666;" vertex="1" parent="1">
          <mxGeometry x="150" y="780" width="110" height="40" as="geometry" />
        </mxCell>
        <mxCell id="UGh84uwNY6xkyhURXS99-9" value="" style="rounded=0;whiteSpace=wrap;html=1;fillColor=#f5f5f5;fontColor=#333333;strokeColor=#666666;" vertex="1" parent="1">
          <mxGeometry x="324" y="690" width="66" height="30" as="geometry" />
        </mxCell>
        <mxCell id="UGh84uwNY6xkyhURXS99-10" value="" style="rounded=0;whiteSpace=wrap;html=1;fillColor=#f5f5f5;fontColor=#333333;strokeColor=#666666;" vertex="1" parent="1">
          <mxGeometry x="500" y="690" width="60" height="30" as="geometry" />
        </mxCell>
        <mxCell id="UGh84uwNY6xkyhURXS99-11" value="" style="rounded=0;whiteSpace=wrap;html=1;fillColor=#f5f5f5;fontColor=#333333;strokeColor=#666666;" vertex="1" parent="1">
          <mxGeometry x="350" y="588.75" width="70" height="32.5" as="geometry" />
        </mxCell>
        <mxCell id="UGh84uwNY6xkyhURXS99-12" value="" style="shape=image;verticalLabelPosition=bottom;labelBackgroundColor=default;verticalAlign=top;aspect=fixed;imageAspect=0;image=data:image/png,iVBORw0KGgoAAAANSUhEUgAAAEYAAAA0CAYAAAA3xE5OAAAAAXNSR0IArs4c6QAAAARnQU1BAACxjwv8YQUAAAAJcEhZcwAAFiUAABYlAUlSJPAAAADPSURBVGhD7dqxEcIwEAXRE704oQRogiqgHlKqIKMDSiCxe8G2RhFos1O2L9HMn4s2cOTy3YT+HNqrH4YBhgGGAYYBhgGGAYYBhgGGAYYBhgGGAYYBhgGGAYYBhgGGAYYBhgGGAYYBhgGGAYYBuWGWe5xLiXJ7xdKmqrePuk2SG2b+xHt/H8+Y69D09lG3SXLDTMc47e/1ElMdmt4+6jaJfzsAP77AMMAwwDDAMMAwwDDAMMAwwDDAMMAwwDDAMMAwwDDAMMAwwDDAMMAwXRErd8tCPcPnCMgAAAAASUVORK5CYII=;" vertex="1" parent="1">
          <mxGeometry x="420" y="774" width="70" height="52" as="geometry" />
        </mxCell>
        <mxCell id="UGh84uwNY6xkyhURXS99-13" value="" style="shape=image;verticalLabelPosition=bottom;labelBackgroundColor=default;verticalAlign=top;aspect=fixed;imageAspect=0;image=data:image/png,iVBORw0KGgoAAAANSUhEUgAAAEYAAAA0CAYAAAA3xE5OAAAAAXNSR0IArs4c6QAAAARnQU1BAACxjwv8YQUAAAAJcEhZcwAAFiUAABYlAUlSJPAAAADPSURBVGhD7dqxEcIwEAXRE704oQRogiqgHlKqIKMDSiCxe8G2RhFos1O2L9HMn4s2cOTy3YT+HNqrH4YBhgGGAYYBhgGGAYYBhgGGAYYBhgGGAYYBhgGGAYYBhgGGAYYBhgGGAYYBhgGGAYYBuWGWe5xLiXJ7xdKmqrePuk2SG2b+xHt/H8+Y69D09lG3SXLDTMc47e/1ElMdmt4+6jaJfzsAP77AMMAwwDDAMMAwwDDAMMAwwDDAMMAwwDDAMMAwwDDAMMAwwDDAMMAwXRErd8tCPcPnCMgAAAAASUVORK5CYII=;" vertex="1" parent="1">
          <mxGeometry x="420" y="674" width="70" height="52" as="geometry" />
        </mxCell>
        <mxCell id="UGh84uwNY6xkyhURXS99-14" value="" style="endArrow=classic;html=1;rounded=0;exitX=0.75;exitY=0;exitDx=0;exitDy=0;fillColor=#fff2cc;strokeColor=#000000;" edge="1" parent="1" source="UGh84uwNY6xkyhURXS99-5">
          <mxGeometry width="50" height="50" relative="1" as="geometry">
            <mxPoint x="380" y="640" as="sourcePoint" />
            <mxPoint x="360" y="630" as="targetPoint" />
          </mxGeometry>
        </mxCell>
        <mxCell id="UGh84uwNY6xkyhURXS99-49" value="pooling" style="edgeLabel;html=1;align=center;verticalAlign=middle;resizable=0;points=[];" vertex="1" connectable="0" parent="UGh84uwNY6xkyhURXS99-14">
          <mxGeometry x="-0.3608" y="2" relative="1" as="geometry">
            <mxPoint y="1" as="offset" />
          </mxGeometry>
        </mxCell>
        <mxCell id="UGh84uwNY6xkyhURXS99-15" value="bert" style="endArrow=classic;html=1;rounded=0;exitX=0.5;exitY=0;exitDx=0;exitDy=0;" edge="1" parent="1" source="UGh84uwNY6xkyhURXS99-7" target="UGh84uwNY6xkyhURXS99-5">
          <mxGeometry width="50" height="50" relative="1" as="geometry">
            <mxPoint x="380" y="640" as="sourcePoint" />
            <mxPoint x="400" y="630" as="targetPoint" />
          </mxGeometry>
        </mxCell>
        <mxCell id="UGh84uwNY6xkyhURXS99-18" value="" style="endArrow=classic;html=1;rounded=0;entryX=0.25;entryY=1;entryDx=0;entryDy=0;exitX=0.348;exitY=0.033;exitDx=0;exitDy=0;exitPerimeter=0;" edge="1" parent="1" source="UGh84uwNY6xkyhURXS99-30" target="UGh84uwNY6xkyhURXS99-9">
          <mxGeometry width="50" height="50" relative="1" as="geometry">
            <mxPoint x="315" y="780" as="sourcePoint" />
            <mxPoint x="430" y="590" as="targetPoint" />
          </mxGeometry>
        </mxCell>
        <mxCell id="UGh84uwNY6xkyhURXS99-19" value="" style="endArrow=classic;html=1;rounded=0;entryX=0.5;entryY=1;entryDx=0;entryDy=0;exitX=0.5;exitY=0;exitDx=0;exitDy=0;" edge="1" parent="1" target="UGh84uwNY6xkyhURXS99-10">
          <mxGeometry width="50" height="50" relative="1" as="geometry">
            <mxPoint x="585" y="780" as="sourcePoint" />
            <mxPoint x="430" y="590" as="targetPoint" />
          </mxGeometry>
        </mxCell>
        <mxCell id="UGh84uwNY6xkyhURXS99-20" value="" style="endArrow=classic;html=1;rounded=0;exitX=0.25;exitY=0;exitDx=0;exitDy=0;fillColor=#fff2cc;strokeColor=#000000;" edge="1" parent="1" source="UGh84uwNY6xkyhURXS99-10">
          <mxGeometry width="50" height="50" relative="1" as="geometry">
            <mxPoint x="380" y="640" as="sourcePoint" />
            <mxPoint x="420" y="630" as="targetPoint" />
          </mxGeometry>
        </mxCell>
        <mxCell id="UGh84uwNY6xkyhURXS99-23" value="" style="endArrow=classic;html=1;rounded=0;exitX=0.5;exitY=0;exitDx=0;exitDy=0;fillColor=#fff2cc;strokeColor=#000000;" edge="1" parent="1" source="UGh84uwNY6xkyhURXS99-9">
          <mxGeometry width="50" height="50" relative="1" as="geometry">
            <mxPoint x="380" y="640" as="sourcePoint" />
            <mxPoint x="380" y="630" as="targetPoint" />
          </mxGeometry>
        </mxCell>
        <mxCell id="UGh84uwNY6xkyhURXS99-24" value="" style="endArrow=classic;html=1;rounded=0;fillColor=#fff2cc;strokeColor=#000000;" edge="1" parent="1">
          <mxGeometry width="50" height="50" relative="1" as="geometry">
            <mxPoint x="440" y="680" as="sourcePoint" />
            <mxPoint x="400" y="630" as="targetPoint" />
          </mxGeometry>
        </mxCell>
        <mxCell id="UGh84uwNY6xkyhURXS99-25" value="" style="endArrow=classic;html=1;rounded=0;exitX=0.5;exitY=0;exitDx=0;exitDy=0;" edge="1" parent="1" source="UGh84uwNY6xkyhURXS99-12">
          <mxGeometry width="50" height="50" relative="1" as="geometry">
            <mxPoint x="480" y="780" as="sourcePoint" />
            <mxPoint x="450" y="720" as="targetPoint" />
          </mxGeometry>
        </mxCell>
        <mxCell id="UGh84uwNY6xkyhURXS99-27" value="" style="ellipse;whiteSpace=wrap;html=1;aspect=fixed;" vertex="1" parent="1">
          <mxGeometry x="160" y="787.5" width="25" height="25" as="geometry" />
        </mxCell>
        <mxCell id="UGh84uwNY6xkyhURXS99-28" value="" style="ellipse;whiteSpace=wrap;html=1;aspect=fixed;" vertex="1" parent="1">
          <mxGeometry x="192.5" y="787.5" width="25" height="25" as="geometry" />
        </mxCell>
        <mxCell id="UGh84uwNY6xkyhURXS99-29" value="" style="ellipse;whiteSpace=wrap;html=1;aspect=fixed;" vertex="1" parent="1">
          <mxGeometry x="230" y="787.5" width="25" height="25" as="geometry" />
        </mxCell>
        <mxCell id="UGh84uwNY6xkyhURXS99-30" value="" style="rounded=0;whiteSpace=wrap;html=1;fillColor=#f5f5f5;fontColor=#333333;strokeColor=#666666;" vertex="1" parent="1">
          <mxGeometry x="290" y="780" width="110" height="40" as="geometry" />
        </mxCell>
        <mxCell id="UGh84uwNY6xkyhURXS99-31" value="" style="ellipse;whiteSpace=wrap;html=1;aspect=fixed;" vertex="1" parent="1">
          <mxGeometry x="299" y="787.5" width="25" height="25" as="geometry" />
        </mxCell>
        <mxCell id="UGh84uwNY6xkyhURXS99-32" value="" style="ellipse;whiteSpace=wrap;html=1;aspect=fixed;" vertex="1" parent="1">
          <mxGeometry x="332.5" y="787.5" width="25" height="25" as="geometry" />
        </mxCell>
        <mxCell id="UGh84uwNY6xkyhURXS99-33" value="" style="ellipse;whiteSpace=wrap;html=1;aspect=fixed;" vertex="1" parent="1">
          <mxGeometry x="365" y="787.5" width="25" height="25" as="geometry" />
        </mxCell>
        <mxCell id="UGh84uwNY6xkyhURXS99-42" value="" style="rounded=0;whiteSpace=wrap;html=1;fillColor=#f5f5f5;fontColor=#333333;strokeColor=#666666;" vertex="1" parent="1">
          <mxGeometry x="510" y="780" width="110" height="40" as="geometry" />
        </mxCell>
        <mxCell id="UGh84uwNY6xkyhURXS99-43" value="" style="ellipse;whiteSpace=wrap;html=1;aspect=fixed;" vertex="1" parent="1">
          <mxGeometry x="520" y="787.5" width="25" height="25" as="geometry" />
        </mxCell>
        <mxCell id="UGh84uwNY6xkyhURXS99-44" value="" style="ellipse;whiteSpace=wrap;html=1;aspect=fixed;" vertex="1" parent="1">
          <mxGeometry x="552.5" y="787.5" width="25" height="25" as="geometry" />
        </mxCell>
        <mxCell id="UGh84uwNY6xkyhURXS99-45" value="" style="ellipse;whiteSpace=wrap;html=1;aspect=fixed;" vertex="1" parent="1">
          <mxGeometry x="590" y="787.5" width="25" height="25" as="geometry" />
        </mxCell>
        <mxCell id="UGh84uwNY6xkyhURXS99-46" value="&lt;font style=&quot;font-size: 17px;&quot;&gt;raw sequence&lt;/font&gt;" style="rounded=0;whiteSpace=wrap;html=1;strokeColor=none;" vertex="1" parent="1">
          <mxGeometry x="700" y="770" width="120" height="60" as="geometry" />
        </mxCell>
        <mxCell id="UGh84uwNY6xkyhURXS99-47" value="&lt;font style=&quot;font-size: 17px;&quot;&gt;sentence embeddings&lt;/font&gt;" style="rounded=0;whiteSpace=wrap;html=1;strokeColor=none;" vertex="1" parent="1">
          <mxGeometry x="700" y="666" width="120" height="60" as="geometry" />
        </mxCell>
        <mxCell id="UGh84uwNY6xkyhURXS99-48" value="&lt;font style=&quot;font-size: 17px;&quot;&gt;pooling&lt;br&gt;embeddings&lt;/font&gt;" style="rounded=0;whiteSpace=wrap;html=1;strokeColor=none;" vertex="1" parent="1">
          <mxGeometry x="700" y="575" width="120" height="60" as="geometry" />
        </mxCell>
      </root>
    </mxGraphModel>
  </diagram>
</mxfile>
